<?xml version="1.0" standalone="no"?>
<!DOCTYPE svg PUBLIC "-//W3C//DTD SVG 20010904//EN"
 "http://www.w3.org/TR/2001/REC-SVG-20010904/DTD/svg10.dtd">
<svg version="1.0" xmlns="http://www.w3.org/2000/svg"
 width="980.000000pt" height="664.000000pt" viewBox="0 0 980.000000 664.000000"
 preserveAspectRatio="xMidYMid meet">

<g transform="translate(0.000000,664.000000) scale(0.100000,-0.100000)"
fill="#FFFFFF" stroke="none">
<path d="M2780 6615 c-187 -31 -373 -97 -530 -187 -264 -152 -426 -345 -507
-605 l-28 -88 -5 -750 -5 -750 -853 -3 -852 -2 0 -2110 0 -2110 1435 0 1435 0
0 2110 0 2110 -430 0 -430 0 0 703 c0 781 1 783 66 916 44 89 144 197 249 271
181 125 439 210 636 210 43 0 79 1 79 3 0 2 11 65 25 141 13 77 22 143 19 147
-8 13 -217 9 -304 -6z"/>
<path d="M6300 5254 c-386 -46 -711 -154 -1010 -334 -699 -420 -1132 -1141
-1176 -1958 l-7 -122 2419 2 2419 3 -3 105 c-8 305 -91 641 -230 933 -301 632
-868 1109 -1538 1292 -223 61 -342 77 -604 80 -129 2 -251 1 -270 -1z"/>
<path d="M3715 2665 c-212 -59 -386 -236 -440 -450 -18 -69 -20 -192 -4 -267
6 -29 30 -94 54 -143 71 -148 190 -252 357 -313 l73 -27 2735 -3 c3043 -3
2817 -8 2970 65 104 50 222 168 274 273 40 83 66 186 66 271 1 226 -135 447
-335 544 -143 70 102 65 -2945 64 -2288 -1 -2763 -3 -2805 -14z"/>
<path d="M3910 1260 l0 -80 2520 0 2520 0 0 80 0 80 -2520 0 -2520 0 0 -80z"/>
<path d="M3952 703 l3 -328 32 -67 c54 -115 150 -191 273 -217 41 -9 584 -11
2200 -9 l2145 3 57 23 c125 50 220 178 239 318 4 38 8 189 9 337 l0 267 -2481
0 -2480 0 3 -327z"/>
</g>
</svg>
