<?xml version="1.0" standalone="no"?>
<!DOCTYPE svg PUBLIC "-//W3C//DTD SVG 20010904//EN"
 "http://www.w3.org/TR/2001/REC-SVG-20010904/DTD/svg10.dtd">
<svg version="1.0" xmlns="http://www.w3.org/2000/svg"
 width="512.000000pt" height="512.000000pt" viewBox="0 0 512.000000 512.000000"
 preserveAspectRatio="xMidYMid meet">

<g transform="translate(0.000000,512.000000) scale(0.100000,-0.100000)"
fill="#FFFFFF" stroke="none">
<path d="M3240 4900 c0 -3 47 -66 105 -140 57 -74 103 -139 102 -144 -2 -4
-594 -359 -1317 -787 l-1315 -780 -12 -292 c-7 -161 -12 -304 -10 -320 2 -26
49 2 1431 863 1293 807 1430 890 1445 876 9 -8 63 -78 121 -155 58 -77 107
-140 110 -140 10 -1 238 452 356 709 l123 265 -27 3 c-53 7 -1112 47 -1112 42z"/>
<path d="M3615 3686 c-67 -22 -100 -43 -148 -96 -83 -92 -77 36 -77 -1595 0
-1630 -6 -1503 76 -1594 26 -29 69 -62 102 -78 56 -27 61 -28 263 -31 164 -3
218 -1 268 12 74 19 141 63 182 119 63 86 60 2 57 1593 l-3 1449 -28 57 c-32
65 -89 121 -156 152 -42 19 -65 21 -271 23 -163 2 -236 -1 -265 -11z"/>
<path d="M2337 2976 c-61 -17 -122 -59 -164 -114 -66 -87 -64 -33 -61 -1243
l3 -1094 28 -57 c33 -67 80 -111 157 -147 54 -26 58 -26 290 -26 l235 0 57 28
c33 16 76 49 102 78 81 90 76 6 76 1239 0 981 -2 1101 -16 1144 -22 64 -100
147 -166 177 -50 23 -65 24 -273 26 -158 2 -234 -1 -268 -11z"/>
<path d="M1025 2296 c-116 -37 -198 -109 -248 -214 l-32 -67 0 -755 0 -755 32
-66 c57 -115 174 -201 296 -218 29 -4 144 -6 257 -5 185 1 211 4 263 24 107
40 193 127 233 233 18 50 19 84 19 797 l0 745 -32 67 c-40 85 -106 151 -191
191 l-67 32 -245 2 c-179 2 -256 -1 -285 -11z m540 -167 c64 -32 110 -93 125
-162 7 -37 10 -265 8 -738 l-3 -684 -22 -41 c-28 -52 -95 -111 -142 -124 -48
-13 -426 -13 -474 1 -47 13 -111 69 -140 123 l-22 41 0 720 c0 683 1 722 19
755 36 68 91 113 161 131 17 4 122 7 235 6 199 -2 207 -3 255 -28z"/>
</g>
</svg>
