<?xml version="1.0" standalone="no"?>
<!DOCTYPE svg PUBLIC "-//W3C//DTD SVG 20010904//EN"
 "http://www.w3.org/TR/2001/REC-SVG-20010904/DTD/svg10.dtd">
<svg version="1.0" xmlns="http://www.w3.org/2000/svg"
 width="1280.000000pt" height="732.000000pt" viewBox="0 0 1280.000000 732.000000"
 preserveAspectRatio="xMidYMid meet">
<metadata>
Created by potrace 1.15, written by Peter Selinger 2001-2017
</metadata>
<g transform="translate(0.000000,732.000000) scale(0.100000,-0.100000)"
fill="#FFFFFF" stroke="none">
<path d="M4610 7278 c-59 -20 -114 -31 -178 -35 -51 -3 -95 -10 -98 -14 -3 -5
-16 -9 -29 -9 -19 0 -23 -4 -18 -17 5 -15 3 -15 -11 2 -13 14 -19 16 -23 7 -8
-20 -61 -43 -86 -37 -39 10 -97 -20 -97 -50 0 -5 5 -3 10 5 5 8 10 10 10 4 0
-6 -6 -17 -14 -24 -8 -6 -12 -18 -9 -26 6 -17 -14 -44 -33 -44 -8 0 -14 9 -13
23 1 17 2 18 6 4 6 -22 27 -17 31 6 3 12 -4 17 -22 17 -14 0 -29 6 -33 13 -11
16 -49 46 -40 30 8 -13 -1 -63 -12 -61 -3 1 -35 -13 -71 -30 -36 -18 -70 -32
-76 -32 -8 0 -7 -23 4 -76 10 -48 18 -71 23 -62 5 7 9 9 9 4 0 -17 -50 -75
-70 -81 -22 -7 -59 27 -60 55 0 9 -18 34 -40 55 -22 21 -40 44 -40 50 0 13
-50 36 -63 28 -6 -3 -7 -1 -4 4 4 6 -2 18 -13 28 -19 17 -19 16 1 -25 24 -49
19 -89 -12 -97 -15 -4 -17 -8 -8 -14 10 -6 10 -16 1 -45 -6 -21 -10 -39 -9
-40 1 -2 29 -4 61 -6 54 -3 61 -6 78 -33 10 -16 18 -39 18 -50 -1 -24 -23 -55
-39 -55 -13 0 -5 -40 9 -50 7 -5 23 -46 25 -62 0 -3 3 -10 8 -14 10 -11 9 -42
-3 -46 -5 -1 -12 -18 -16 -35 -6 -29 -3 -34 22 -43 16 -6 31 -15 34 -19 3 -4
41 -15 85 -24 140 -29 131 -30 170 24 30 42 32 50 19 57 -15 8 -15 10 0 15 9
4 16 2 16 -3 0 -6 7 -10 15 -10 8 0 15 6 15 14 0 8 6 21 13 28 27 29 42 52 29
44 -8 -5 10 17 40 47 29 30 66 58 81 61 20 5 33 18 46 47 20 44 93 112 122
114 10 1 30 12 44 25 14 13 27 21 30 18 10 -10 26 -121 18 -128 -12 -11 -100
-31 -115 -25 -7 2 -26 -7 -41 -20 l-28 -25 25 -33 c29 -37 34 -67 12 -67 -30
0 -25 -106 6 -135 7 -7 47 -15 89 -18 81 -5 114 -19 124 -52 3 -11 9 -83 12
-160 5 -119 3 -146 -11 -172 -20 -41 -20 -43 4 -43 16 0 20 -7 20 -32 0 -17
-6 -39 -14 -47 -7 -9 -17 -26 -20 -38 -6 -18 -3 -23 11 -24 16 0 16 -1 -2 -9
-19 -8 -19 -9 3 -9 18 -1 22 -7 22 -36 0 -18 -6 -38 -12 -42 -7 -5 -36 -33
-65 -63 l-52 -55 19 -35 18 -35 -1 46 c0 32 5 52 16 64 17 17 25 7 8 -11 -11
-11 -18 -114 -10 -129 15 -25 48 -156 54 -215 4 -36 11 -70 16 -75 4 -6 9 -37
11 -68 l3 -58 35 38 c21 22 25 30 10 18 l-25 -20 19 23 c19 22 19 23 0 37 -10
8 -15 15 -11 15 14 0 74 -66 82 -90 l8 -24 14 27 c7 15 18 27 23 27 6 0 10 6
10 13 0 8 18 42 40 76 22 34 35 59 28 55 -7 -4 -4 3 7 14 11 12 54 59 95 105
54 61 86 88 115 98 22 8 50 26 63 41 13 15 32 30 43 33 10 4 16 11 13 17 -4 6
-2 8 4 5 14 -9 43 3 36 14 -3 5 3 6 12 2 13 -5 15 -3 9 7 -5 8 -4 11 2 7 17
-11 214 80 253 116 11 9 23 18 27 20 5 1 6 6 5 12 -20 58 -20 152 0 188 7 12
11 25 10 29 -1 5 4 7 11 5 6 -1 11 4 9 11 -1 8 2 11 8 7 5 -3 10 -1 10 6 0 7
3 9 7 5 4 -3 28 15 55 41 37 36 45 50 36 60 -6 7 -8 16 -4 20 3 4 -6 20 -21
35 l-28 29 41 79 c22 44 35 75 27 68 -15 -13 -15 -13 -35 25 -13 26 -13 35 0
75 8 26 22 55 30 65 8 9 12 20 9 23 -3 4 2 14 11 23 10 9 13 14 7 11 -6 -3 2
7 19 21 16 14 26 31 23 36 -4 6 1 17 11 24 16 13 16 13 2 -6 -14 -18 -14 -19
2 -7 9 8 15 19 12 26 -6 15 60 76 81 76 9 0 12 6 9 15 -4 8 -1 22 5 29 10 11
8 16 -7 20 -11 4 -28 16 -38 29 -13 14 -14 18 -3 9 19 -14 19 -15 74 73 l37
60 -69 -67 c-68 -68 -98 -82 -110 -52 -3 8 -12 13 -20 10 -8 -3 -12 -2 -9 3 3
4 -8 21 -24 36 -22 21 -27 32 -19 41 8 9 -1 17 -34 32 -71 32 -85 48 -81 96 2
22 2 36 -1 30 -5 -9 -19 -8 -56 1 -50 14 -64 22 -125 78 l-32 29 -11 -33 c-9
-25 -8 -35 1 -42 9 -6 8 -7 -4 -3 -10 3 -21 -1 -26 -11 -5 -8 -33 -19 -62 -25
-55 -10 -80 -26 -84 -55 -2 -9 -11 -18 -21 -19 -21 -3 -35 -22 -28 -40 2 -6
-1 -15 -8 -20 -9 -5 -11 -2 -6 8 8 21 -3 30 -19 17 -11 -9 -15 -7 -20 5 -6 15
-7 15 -19 -1 -12 -16 -15 -15 -61 4 -37 16 -63 19 -105 16 -45 -4 -57 -2 -62
11 -8 21 9 30 30 16 15 -9 14 -10 -6 -4 -15 4 -21 2 -17 -4 5 -9 86 -15 86 -7
0 1 -21 10 -47 20 -59 23 -73 36 -66 63 4 16 -1 24 -21 33 -14 7 -26 16 -26
20 0 4 -14 10 -31 14 -41 9 -46 29 -17 68 26 34 41 58 36 56 -2 -1 -41 -15
-88 -31z m45 -18 c-32 -33 -56 -38 -75 -15 -10 12 -9 15 4 15 10 0 14 -4 11
-10 -10 -16 31 -11 45 5 7 8 9 15 4 16 -8 0 23 16 35 18 3 1 -8 -12 -24 -29z
m694 -84 l23 -24 -25 2 c-17 1 -22 5 -16 12 5 6 6 14 2 17 -3 4 -12 -1 -19
-11 -12 -15 -12 -15 -7 6 7 28 14 28 42 -2z m-1527 -193 c-3 -16 -7 -22 -10
-15 -4 13 4 42 11 42 2 0 2 -12 -1 -27z m11 -44 c-6 -6 -7 3 -4 23 4 28 6 29
9 9 2 -13 0 -27 -5 -32z m1149 17 c7 4 8 2 4 -5 -10 -15 -26 -4 -25 17 1 15 2
15 6 -1 2 -9 9 -14 15 -11z m643 -46 c-3 -5 -20 -10 -37 -10 -25 0 -29 -3 -25
-20 3 -11 2 -22 -2 -25 -5 -2 -8 8 -7 23 1 23 6 28 36 33 19 4 36 7 38 8 2 0
0 -3 -3 -9z m194 -25 c-12 -19 -25 -32 -31 -29 -5 3 3 19 18 35 36 37 38 37
13 -6z m-149 3 c0 -6 -6 -5 -15 2 -8 7 -15 14 -15 16 0 2 7 1 15 -2 8 -4 15
-11 15 -16z m-1153 -45 c-3 -10 -5 -4 -5 12 0 17 2 24 5 18 2 -7 2 -21 0 -30z
m1106 21 c-5 -14 -1 -16 21 -12 18 4 24 2 17 -5 -5 -5 -22 -7 -36 -3 -22 6
-25 9 -15 21 16 20 21 19 13 -1z m-1136 -8 c-14 -11 -17 -23 -13 -57 l6 -44
-11 44 c-10 39 -9 47 7 58 24 17 34 16 11 -1z m-913 -12 c9 -3 16 -16 15 -28
0 -21 0 -21 -9 2 -10 23 -30 30 -30 10 0 -6 -3 -9 -6 -5 -3 3 -3 10 1 16 7 13
8 13 29 5z m246 -59 c-11 -13 -10 -18 8 -31 20 -14 42 -69 42 -106 0 -24 -50
-48 -100 -48 -38 0 -40 2 -40 30 0 17 -4 30 -9 30 -6 0 -3 16 5 35 18 43 18
49 0 42 -10 -4 -13 -1 -9 9 7 19 -2 18 -23 -3 -17 -17 -18 -17 -11 0 4 10 2
17 -6 18 -7 0 -2 4 10 9 12 5 31 7 42 5 19 -4 93 28 87 37 -2 3 2 2 7 -3 7 -5
6 -14 -3 -24z m699 -56 c-8 -5 -21 -8 -29 -8 -8 0 -5 4 8 9 12 5 22 15 23 22
0 10 2 10 6 -1 3 -7 -1 -17 -8 -22z m-629 -31 c0 -23 -16 -16 -23 11 -3 14 -1
18 9 14 8 -3 14 -14 14 -25z m-193 -74 c-3 -3 -12 -4 -19 -1 -8 3 -5 6 6 6 11
1 17 -2 13 -5z m188 -90 c15 -4 20 -13 19 -32 -1 -26 -4 -27 -55 -30 -44 -2
-61 1 -82 18 -46 36 -36 50 36 50 34 0 71 -3 82 -6z m1698 -225 c-6 -6 -9 -19
-6 -28 4 -14 3 -14 -6 -1 -16 22 -13 40 6 40 13 0 14 -3 6 -11z m41 -188 c3
-4 -5 -18 -19 -31 -26 -24 -31 -6 -6 24 15 18 18 19 25 7z m-62 -48 c-6 -2 -9
-10 -6 -15 4 -7 2 -8 -5 -4 -13 9 -5 26 12 25 9 0 8 -2 -1 -6z m-102 -294 c0
-5 -4 -9 -8 -9 -5 0 -9 7 -9 15 0 8 4 12 9 9 4 -3 8 -9 8 -15z m-500 -302 c0
-2 -10 -12 -21 -23 -22 -19 -22 -19 -10 4 10 18 31 31 31 19z m-378 -323 c2
-19 0 -37 -4 -40 -4 -3 -8 13 -8 35 0 51 6 53 12 5z"/>
<path d="M5599 6103 c-13 -16 -12 -17 4 -4 9 7 17 15 17 17 0 8 -8 3 -21 -13z"/>
<path d="M8125 7125 c11 -9 18 -17 15 -18 -3 -2 3 -21 14 -44 17 -40 18 -44 2
-67 -9 -14 -16 -27 -16 -30 0 -5 52 -20 63 -18 4 1 7 -2 7 -7 0 -4 12 -20 27
-35 21 -22 32 -26 56 -20 17 3 27 2 24 -3 -5 -8 118 -32 185 -36 9 -1 15 -4
12 -8 -2 -4 3 -10 12 -13 9 -3 14 -12 11 -20 -5 -11 0 -12 25 -5 56 16 68 0
68 -94 0 -90 -15 -132 -45 -132 -11 0 -22 -3 -25 -6 -3 -3 -18 -10 -35 -16
-20 -6 -31 -17 -33 -32 -2 -13 -16 -30 -30 -38 -15 -9 -39 -35 -54 -59 -15
-25 -35 -44 -45 -44 -13 0 -6 -11 25 -39 40 -36 42 -38 24 -54 -23 -21 -85
-47 -114 -48 -13 0 -17 -3 -10 -6 21 -8 13 -22 -20 -31 l-31 -8 41 -13 c23 -8
42 -20 42 -26 0 -17 -25 -36 -41 -33 -9 2 -13 -5 -12 -19 2 -18 -2 -23 -21
-23 -14 0 -33 -3 -43 -6 -15 -5 -15 -4 -3 5 13 9 13 11 -2 11 -10 0 -24 14
-33 30 -9 17 -18 30 -21 30 -2 0 0 -10 7 -21 11 -21 10 -22 -22 -15 -19 3 -51
18 -72 32 -55 36 -66 28 -60 -42 3 -32 -1 -82 -8 -111 -11 -50 -11 -55 9 -76
12 -13 22 -35 22 -50 0 -18 5 -27 15 -27 19 0 67 -49 60 -60 -12 -19 -76 -7
-115 21 -25 18 -48 28 -59 24 -19 -6 -138 41 -209 82 -91 54 -100 140 -29 288
44 90 106 172 120 158 4 -3 10 3 13 13 4 10 18 33 31 51 21 30 17 53 -7 38 -5
-3 -10 0 -10 8 0 8 -7 18 -15 21 -13 5 -14 10 -4 28 11 21 10 21 -12 -3 -13
-14 -41 -46 -62 -71 -23 -29 -48 -49 -67 -53 -17 -4 -30 -10 -30 -15 0 -4 -10
-6 -22 -4 -13 2 -18 2 -11 -2 9 -4 7 -11 -7 -27 -11 -11 -20 -32 -21 -46 l-1
-26 -7 25 c-7 23 -8 22 -12 -13 -4 -30 -2 -36 9 -32 12 4 11 0 -2 -19 -11 -17
-17 -56 -20 -128 -4 -98 -8 -126 -21 -168 -7 -20 -3 -22 110 -50 38 -10 79
-21 89 -26 14 -5 17 -4 12 4 -10 17 60 -28 102 -65 31 -27 35 -34 22 -43 -11
-7 -19 -5 -32 10 -16 20 -17 20 -20 -2 -2 -15 -10 -23 -23 -24 -11 -1 -41 -5
-67 -9 -39 -6 -47 -4 -50 10 -2 13 -14 9 -61 -24 -47 -33 -66 -41 -103 -41
-25 0 -53 4 -62 9 -10 5 -47 4 -93 -3 -81 -13 -133 -6 -196 27 -18 10 -42 17
-53 17 -26 0 -132 47 -142 63 -4 7 -6 18 -3 25 2 7 -4 12 -15 12 -10 0 -22 5
-25 10 -4 6 -11 7 -17 4 -7 -4 -8 -2 -4 4 13 21 -3 32 -29 20 -13 -6 -23 -14
-20 -17 2 -4 -14 -6 -35 -4 -24 1 -43 -4 -50 -13 -7 -8 -20 -14 -30 -14 -10 0
-23 -7 -30 -15 -7 -8 -20 -15 -29 -15 -18 0 14 21 63 41 27 11 28 13 10 20
-27 11 -42 10 -24 -1 10 -7 11 -10 2 -10 -7 0 -15 7 -19 16 -4 11 -13 5 -34
-27 -29 -45 -98 -105 -137 -120 -13 -5 -20 -14 -17 -19 3 -6 -4 -24 -16 -42
-13 -17 -18 -28 -12 -25 19 12 26 -12 12 -46 -27 -69 -180 -288 -220 -314 -33
-22 -39 -31 -39 -62 0 -20 -9 -51 -20 -69 -25 -40 -25 -40 2 -44 12 -2 23 -9
26 -17 3 -8 0 -11 -7 -7 -6 4 -11 2 -11 -3 0 -6 6 -11 13 -11 8 0 19 -11 25
-24 13 -29 61 -41 78 -18 6 9 23 17 36 19 21 3 27 -2 30 -22 3 -13 1 -22 -3
-19 -5 3 -9 0 -9 -6 0 -7 -10 -25 -21 -42 -21 -29 -23 -45 -16 -133 l2 -30
-135 3 c-126 2 -136 4 -153 25 -28 34 -67 114 -67 135 0 11 -7 25 -15 32 -8 7
-15 21 -15 31 0 23 -13 24 -35 3 -13 -14 -21 -15 -41 -5 -15 7 -23 7 -19 1 3
-5 2 -10 -4 -10 -6 0 -7 -7 -4 -17 5 -12 3 -14 -8 -8 -12 8 -12 6 0 -8 15 -19
26 -23 15 -5 -4 7 -3 8 4 4 13 -8 6 -30 -19 -67 -10 -14 -15 -30 -11 -34 4 -5
2 -5 -5 -1 -7 4 -19 -4 -28 -18 -14 -21 -26 -26 -72 -28 l-55 -3 28 -25 c15
-14 24 -19 19 -11 -5 9 -4 12 3 7 6 -3 14 -1 18 5 5 9 0 10 -14 7 -12 -4 -25
-2 -28 3 -3 6 10 9 30 7 l36 -2 -20 -21 c-11 -12 -21 -33 -22 -47 -1 -15 -7
-24 -12 -21 -5 4 -7 -1 -3 -10 3 -9 1 -19 -5 -23 -7 -5 -8 -2 -3 7 8 12 6 12
-8 0 -27 -22 -21 -24 46 -17 l62 6 69 -70 c47 -48 66 -74 62 -85 -4 -12 11
-32 50 -68 53 -49 56 -53 51 -90 -9 -66 -22 -72 -147 -69 -106 2 -110 1 -114
-21 -9 -42 -12 -207 -4 -207 4 0 8 -13 8 -30 0 -28 3 -30 35 -30 21 0 35 -5
35 -12 0 -7 3 -24 5 -38 5 -22 4 -22 -4 -5 -9 18 -10 17 -10 -8 -2 -53 -26
-94 -65 -107 -19 -6 -35 -14 -35 -18 1 -4 1 -31 0 -60 -1 -47 -5 -57 -38 -92
-21 -22 -44 -41 -51 -42 -8 -2 -44 -31 -80 -66 -37 -35 -86 -76 -109 -93 -24
-16 -43 -33 -43 -37 1 -11 39 -78 40 -69 0 5 -4 16 -9 26 -7 13 -6 18 3 18 9
0 12 -12 10 -35 -1 -19 3 -44 11 -56 7 -12 15 -30 16 -41 5 -35 -12 -119 -28
-137 -11 -12 -12 -21 -4 -37 6 -11 11 -30 12 -43 0 -15 20 -40 59 -73 59 -50
80 -80 80 -114 0 -11 16 -29 37 -43 20 -12 44 -27 52 -33 41 -26 75 -63 92
-100 18 -38 23 -35 22 12 -1 7 3 10 8 8 4 -3 11 1 16 8 9 16 66 37 98 37 13 0
28 -6 34 -14 14 -17 41 -12 101 19 25 13 61 26 80 30 49 9 112 -15 128 -49 12
-24 17 -26 68 -24 49 2 58 -1 75 -22 10 -14 19 -34 19 -46 0 -29 -19 -84 -41
-115 l-18 -26 67 -69 c79 -81 98 -116 113 -215 17 -102 15 -122 -10 -157 -11
-17 -21 -37 -21 -45 0 -8 -6 -19 -13 -25 -25 -21 -11 -115 31 -204 35 -72 66
-174 60 -196 -3 -13 14 -77 24 -89 6 -7 8 -20 4 -28 -3 -10 1 -15 13 -15 38 0
81 -196 50 -227 -8 -8 -7 -11 2 -10 40 1 46 -3 41 -33 -9 -64 5 -67 61 -13 53
52 107 73 133 52 8 -7 23 -4 45 10 18 11 53 23 77 27 37 5 46 12 62 43 10 21
26 43 34 50 9 8 16 19 16 25 0 7 14 25 31 42 17 16 42 54 56 84 13 30 41 73
61 95 52 57 65 81 52 105 -23 42 -12 79 38 128 26 26 67 59 92 72 24 14 50 36
56 48 8 17 13 20 17 10 6 -14 10 22 8 58 -1 11 7 28 19 39 21 19 28 41 8 29
-6 -4 -8 -3 -4 4 3 6 -9 37 -29 69 -19 32 -36 74 -39 93 -3 19 -8 49 -11 65
-5 25 0 39 31 80 74 98 157 186 215 226 54 38 78 68 151 185 27 42 58 123 58
150 0 8 7 29 16 47 l17 32 -25 -26 c-27 -29 -73 -47 -133 -51 l-40 -3 0 48 0
48 55 23 c30 13 69 29 87 36 17 6 46 25 64 41 19 17 44 29 59 29 16 0 36 11
52 28 40 44 76 71 84 64 4 -4 4 1 1 11 -9 24 23 69 68 97 38 24 38 40 -1 40
-15 0 -24 6 -24 15 0 11 -11 15 -43 15 -47 0 -77 21 -77 55 0 17 7 17 92 11
50 -3 133 -6 185 -6 l94 0 50 -51 c28 -28 48 -57 45 -65 -3 -7 4 -16 15 -19
10 -4 19 -9 19 -13 1 -4 17 -25 36 -47 20 -22 33 -34 28 -26 -4 9 -3 12 4 7 6
-4 9 -12 7 -19 -3 -7 7 -25 21 -42 25 -29 26 -29 10 -2 -9 15 -12 27 -7 27 6
0 6 12 1 31 -12 41 -16 44 -34 30 -10 -8 -16 -9 -21 -1 -3 5 -5 10 -3 11 51
12 64 1 71 -62 2 -19 9 -45 16 -58 11 -19 11 -22 -1 -16 -7 4 -7 1 2 -7 15
-12 60 -108 75 -156 3 -12 17 -33 30 -46 13 -13 29 -43 35 -66 9 -35 42 -86
44 -71 2 11 55 -15 85 -43 19 -17 31 -25 27 -19 -4 8 -1 13 9 13 8 0 20 -10
24 -22 l9 -23 6 25 c12 53 10 65 -10 85 -23 23 -41 89 -51 188 l-6 58 74 75
c84 85 214 194 232 194 7 0 49 -29 94 -65 45 -36 85 -65 90 -65 12 0 33 -50
33 -77 0 -22 3 -23 38 -17 20 4 42 11 48 15 15 12 35 -19 60 -91 14 -40 19
-80 18 -148 -1 -51 3 -88 7 -81 12 20 30 -35 35 -105 3 -32 7 -63 10 -67 3 -5
-1 -9 -9 -9 -7 0 -27 16 -44 35 -19 21 -41 35 -55 35 -12 0 -33 3 -45 6 l-23
6 26 -46 c14 -25 28 -46 30 -46 3 0 2 5 -2 12 -4 7 6 2 24 -10 40 -29 95 -99
87 -112 -3 -5 -2 -10 3 -10 5 0 20 -25 32 -55 12 -30 26 -55 31 -55 5 0 18
-18 29 -40 15 -29 34 -47 70 -65 27 -14 54 -34 60 -45 6 -11 18 -20 28 -21 14
0 13 -2 -3 -8 -15 -6 -4 -10 40 -15 33 -3 92 -14 130 -23 39 -9 82 -16 97 -15
15 1 30 -3 34 -9 4 -8 -1 -9 -17 -5 -13 4 0 -5 30 -19 69 -32 73 -32 31 5
l-35 31 44 -7 c55 -8 321 5 321 16 0 5 -85 10 -189 12 -160 2 -192 6 -207 20
-11 9 -30 21 -44 26 -26 10 -183 133 -197 154 -12 19 -69 48 -78 40 -5 -4 -5
-1 -1 6 4 6 2 12 -4 12 -7 0 -10 6 -7 14 3 8 -3 22 -14 32 -23 21 -25 44 -4
44 13 0 14 4 3 23 -13 23 -17 43 -22 92 -4 35 -26 85 -37 85 -22 0 -80 66 -95
108 -10 26 -22 53 -27 59 -11 14 -1 82 15 100 11 14 32 7 23 -7 -3 -4 12 -21
33 -36 20 -16 63 -52 94 -81 32 -29 62 -53 66 -53 5 0 13 14 18 31 6 22 21 38
50 53 40 20 64 53 64 86 0 9 5 21 12 28 8 8 8 15 -2 27 -11 13 -15 13 -22 3
-7 -10 -8 -10 -7 2 1 8 -5 30 -13 49 -18 41 -7 100 25 128 11 10 17 12 12 4
-5 -9 -4 -12 2 -8 6 4 14 19 18 34 3 15 20 42 36 61 16 18 26 39 23 45 -4 7
-4 9 1 5 4 -4 23 2 42 13 18 11 39 19 46 16 6 -2 23 5 36 17 13 11 21 16 18 9
-5 -8 11 -12 53 -15 48 -2 60 0 60 12 1 8 7 1 14 -16 22 -50 34 -49 40 1 3 25
9 66 12 92 l6 46 -31 -31 c-22 -21 -29 -36 -24 -49 3 -10 3 -15 -2 -11 -4 4
-9 22 -11 40 -3 26 -1 30 7 18 8 -12 9 -10 4 10 -17 71 -17 90 3 132 12 24 24
57 28 73 7 27 6 29 -10 16 -21 -18 -23 -15 -27 39 -3 28 -11 50 -21 58 -10 7
-26 33 -37 57 -14 32 -26 45 -40 45 -16 0 -21 6 -21 29 0 21 10 38 38 62 20
18 43 41 51 51 12 18 11 19 -23 13 -20 -4 -36 -4 -36 -1 0 16 40 83 59 100 21
19 21 19 42 0 12 -10 28 -32 36 -47 8 -16 17 -26 20 -23 10 9 43 -25 43 -43
-1 -10 -7 -5 -16 12 -9 16 -18 27 -21 24 -7 -8 27 -57 40 -57 6 0 8 -3 5 -6
-4 -3 0 -20 7 -37 7 -18 16 -59 20 -92 7 -54 9 -57 17 -33 11 32 40 33 62 2
13 -17 15 -17 21 -2 4 9 -1 31 -10 48 -9 18 -12 30 -7 26 5 -3 15 -19 22 -36
10 -24 10 -33 -1 -46 -12 -15 -15 -14 -33 7 -10 13 -17 20 -15 14 16 -36 36
-72 46 -83 7 -7 17 -21 22 -30 8 -14 12 -15 23 -3 7 8 8 11 2 8 -15 -8 -38 18
-29 33 3 5 12 10 18 10 7 0 6 -4 -3 -10 -8 -5 -11 -13 -6 -17 10 -10 76 -12
70 -2 -2 4 0 10 6 14 5 3 10 14 10 24 0 24 60 69 102 78 17 3 47 17 66 30 19
12 59 30 89 40 35 11 52 21 49 30 -3 7 5 20 17 28 22 16 22 16 -7 13 -27 -3
-31 1 -37 32 -8 36 5 265 17 310 4 14 18 38 33 54 14 16 20 26 14 22 -7 -4
-13 -3 -13 3 0 11 39 60 109 135 25 27 39 45 31 40 -29 -16 -95 -70 -132 -107
-31 -32 -40 -36 -61 -28 -14 5 -28 7 -32 3 -3 -3 -3 1 1 11 3 10 1 17 -6 17
-6 0 -9 4 -6 9 3 5 -6 40 -20 77 -26 69 -43 102 -29 54 15 -49 15 -55 0 -25
-8 17 -12 41 -9 53 3 15 1 21 -5 17 -7 -3 -8 0 -5 9 3 9 1 16 -6 16 -6 0 -8 5
-4 11 3 6 0 15 -7 20 -11 6 -10 9 4 15 9 3 24 1 32 -6 29 -24 16 10 -19 51
-45 53 -99 156 -92 175 4 10 -1 18 -14 21 -11 3 -20 11 -20 19 0 7 -6 17 -12
21 -7 4 -13 15 -13 23 0 8 -9 16 -20 17 -11 2 -14 0 -8 -3 23 -10 -5 -47 -30
-41 -43 10 -126 45 -155 66 -16 11 -33 17 -37 13 -11 -10 3 60 27 138 11 36
24 83 31 105 20 72 48 91 172 112 17 3 35 10 40 17 16 18 95 20 95 2 0 -12 7
-13 37 -4 40 11 86 38 66 38 -20 0 -34 38 -28 74 6 28 16 39 57 61 34 19 48
32 44 42 -3 8 -6 16 -6 19 0 2 -16 -4 -36 -13 -25 -13 -34 -22 -31 -35 3 -10
1 -21 -4 -24 -5 -3 -9 8 -9 23 0 24 6 31 38 43 20 8 40 16 45 18 4 2 7 -2 7
-8 0 -7 9 -23 20 -37 l19 -25 7 26 c3 14 10 26 15 26 5 0 9 9 9 21 0 14 5 19
18 17 14 -3 17 -14 17 -68 -1 -109 -21 -256 -36 -266 -5 -3 -9 -14 -9 -24 0
-10 -5 -20 -11 -22 -14 -5 20 -110 56 -178 101 -187 119 -233 119 -303 l1 -69
12 44 c7 23 17 51 24 62 6 10 13 53 16 95 3 42 10 78 14 81 4 3 9 27 11 53 2
26 9 49 16 52 17 6 15 30 -4 46 -12 10 -14 22 -9 49 3 19 9 60 14 91 7 54 6
55 -16 51 -13 -2 -23 -8 -23 -13 0 -5 7 -6 15 -3 11 5 15 0 14 -17 0 -23 -1
-23 -9 -4 -6 13 -9 15 -9 5 -2 -25 -21 10 -21 38 0 17 -6 22 -25 22 -29 0 -40
19 -49 83 -6 39 -3 54 14 82 12 19 32 38 45 41 12 3 27 16 34 30 13 29 21 30
70 5 l38 -20 7 76 c4 55 13 88 31 119 29 50 76 87 99 78 11 -4 15 -2 11 8 -4
9 6 20 27 29 l33 16 -37 7 c-40 7 -142 92 -153 125 -3 10 -1 38 5 62 6 24 11
61 10 82 -1 36 12 49 26 25 5 -8 10 -7 18 4 11 14 99 21 90 7 -2 -4 2 -9 10
-12 10 -4 12 0 9 14 -6 22 0 23 28 8 19 -10 20 -9 9 11 -6 11 -22 37 -36 58
-15 22 -24 46 -21 60 2 12 1 25 -3 27 -5 3 -11 23 -15 45 -6 37 -9 39 -32 33
-19 -4 -30 -1 -40 13 -10 13 -16 15 -21 7 -9 -14 -88 -19 -172 -9 -36 4 -85 9
-110 10 -25 2 -67 9 -94 16 -39 11 -66 11 -145 0 -54 -7 -113 -11 -131 -8 -33
5 -33 5 -12 -12 12 -10 18 -20 15 -24 -4 -3 1 -6 11 -6 9 0 15 -4 12 -9 -3 -5
1 -14 9 -21 23 -19 18 -35 -11 -38 -18 -1 -33 7 -51 29 l-26 31 -11 -33 c-10
-30 -17 -34 -81 -51 -118 -31 -153 -34 -162 -12 -4 11 -13 25 -20 32 -7 7 -13
27 -13 44 0 25 -3 29 -17 23 -10 -4 -39 -16 -65 -26 -25 -10 -61 -27 -80 -39
-18 -11 -42 -20 -54 -20 -22 0 -63 33 -81 65 -10 16 -14 17 -35 7 -23 -12 -23
-12 0 -8 14 3 20 0 15 -6 -3 -6 -1 -8 5 -4 6 3 14 1 18 -5 10 -18 -48 -2 -62
17 -6 7 -15 14 -19 14 -5 0 -17 7 -27 17 -17 15 -19 15 -36 -1 -12 -10 -31
-15 -53 -12 -19 2 -42 0 -51 -5 -11 -6 -34 -5 -60 2 -92 23 -88 23 -88 1 0
-12 -7 -47 -15 -79 -16 -61 -20 -101 -7 -73 4 8 14 16 22 18 9 1 4 -7 -11 -21
-14 -12 -28 -31 -32 -41 -6 -16 -14 -18 -53 -12 l-46 6 7 -40 c6 -38 6 -40
-19 -40 -30 0 -94 61 -132 126 -30 52 -60 64 -144 61 l-65 -2 2 -35 c2 -23 -1
-30 -6 -21 -7 11 -17 11 -62 1 -30 -7 -48 -15 -41 -18 7 -2 27 1 44 7 44 16
60 12 18 -4 -47 -18 -71 -18 -84 1 -10 13 -18 14 -61 3 -28 -6 -63 -18 -78
-26 -33 -17 -56 -11 -97 24 -35 29 -38 43 -10 43 14 0 18 5 13 16 -4 12 -8 13
-13 3 -5 -7 -7 11 -6 40 1 29 -1 54 -6 57 -5 3 -17 23 -29 45 -15 30 -24 39
-38 34 -10 -3 -29 4 -45 16 l-28 22 -40 -23 c-39 -22 -40 -22 -81 -4 -23 10
-52 27 -64 37 -13 11 -40 21 -60 23 -21 1 -40 3 -43 4 -3 1 -8 2 -12 1 -5 0
-8 4 -8 10 0 5 -5 7 -11 3 -7 -4 -7 1 1 16 11 21 17 22 78 17 58 -6 63 -5 46
8 -10 8 -23 15 -28 15 -13 0 -259 111 -275 123 -13 11 -33 18 -63 20 -9 1 -15
4 -12 8 2 4 -7 10 -21 13 -14 4 -33 14 -43 24 -31 31 -73 54 -88 48 -9 -3 -34
3 -57 15 -27 13 -35 14 -22 4z m35 -30 c0 -8 -2 -15 -4 -15 -2 0 -6 7 -10 15
-3 8 -1 15 4 15 6 0 10 -7 10 -15z m24 -4 c3 -5 -2 -15 -12 -22 -15 -12 -16
-12 -5 2 7 9 10 19 6 22 -3 4 -4 7 0 7 3 0 8 -4 11 -9z m10 -123 c14 -10 -5
-11 -28 -2 -13 5 -14 9 -4 21 10 12 13 13 17 2 2 -8 9 -17 15 -21z m256 -4 c0
5 7 3 15 -4 8 -7 15 -18 15 -24 0 -6 -6 -4 -13 5 -7 9 -16 16 -22 17 -5 0 -11
6 -13 14 -2 9 0 8 7 -2 6 -8 11 -11 11 -6z m197 -206 c-3 -8 -6 -5 -6 6 -1 11
2 17 5 13 3 -3 4 -12 1 -19z m1340 -104 c-3 -3 -12 -4 -19 -1 -8 3 -5 6 6 6
11 1 17 -2 13 -5z m-27 -107 c0 -18 -2 -19 -10 -7 -13 20 -13 43 0 35 6 -3 10
-16 10 -28z m-880 -63 c0 -2 -7 -4 -15 -4 -8 0 -15 4 -15 10 0 5 7 7 15 4 8
-4 15 -8 15 -10z m343 -21 c-7 -2 -19 -2 -25 0 -7 3 -2 5 12 5 14 0 19 -2 13
-5z m-369 -28 c-4 -8 -8 -15 -10 -15 -2 0 -4 7 -4 15 0 8 4 15 10 15 5 0 7 -7
4 -15z m-926 -371 c-3 -27 -4 -26 -9 8 -3 22 -1 34 4 29 5 -5 7 -21 5 -37z
m42 -11 c0 -7 -5 -13 -11 -13 -5 0 -7 4 -4 10 3 5 1 20 -5 32 -11 22 -10 22 4
4 9 -11 16 -26 16 -33z m-25 -32 c3 -5 2 -12 -3 -15 -5 -3 -9 1 -9 9 0 17 3
19 12 6z m31 -45 c3 -8 1 -22 -4 -31 -8 -16 -9 -16 -15 -1 -4 10 -3 15 3 11 6
-3 10 1 10 10 0 9 -4 13 -10 10 -5 -3 -10 -1 -10 4 0 16 20 13 26 -3z m53
-123 c-3 -20 2 -34 10 -28 5 3 13 0 17 -6 4 -8 3 -9 -4 -5 -7 4 -12 1 -12 -6
-1 -7 -7 -2 -14 12 -8 14 -12 28 -10 32 7 10 14 10 13 1z m-1539 -33 c-6 -11
-13 -20 -16 -20 -2 0 0 9 6 20 6 11 13 20 16 20 2 0 0 -9 -6 -20z m4479 -34
c-2 -2 -15 -9 -29 -15 -24 -11 -24 -11 -6 3 16 13 49 24 35 12z m-2893 -26 c5
0 10 -10 11 -22 l2 -23 -7 23 c-4 13 -11 23 -17 22 -5 -1 -11 4 -13 12 -3 11
-2 11 6 0 5 -8 13 -13 18 -12z m3 -70 c0 -9 -4 -8 -9 5 -5 11 -9 27 -9 35 0 9
4 8 9 -5 5 -11 9 -27 9 -35z m-909 -35 c7 -8 9 -15 4 -15 -5 0 -2 -5 6 -11 20
-14 -21 -2 -64 18 -29 13 -25 13 37 -3 21 -5 21 -5 3 10 -11 9 -15 16 -9 16 6
0 16 -7 23 -15z m150 -5 c0 -12 -8 -12 -35 0 -18 8 -17 9 8 9 15 1 27 -3 27
-9z m-30 -32 c0 -6 -6 -5 -15 2 -8 7 -15 14 -15 16 0 2 7 1 15 -2 8 -4 15 -11
15 -16z m-1040 -199 c0 -5 -7 -9 -15 -9 -8 0 -17 -11 -21 -25 -3 -14 -15 -30
-26 -36 -16 -9 -15 -4 8 30 15 23 31 41 36 41 5 0 6 5 2 12 -4 7 -3 8 4 4 7
-4 12 -11 12 -17z m5030 5 c0 -8 -4 -12 -10 -9 -5 3 -10 10 -10 16 0 5 5 9 10
9 6 0 10 -7 10 -16z m-4715 -83 c3 -5 0 -13 -6 -17 -8 -5 -9 -3 -4 6 6 10 4
12 -9 7 -10 -4 -15 -3 -11 3 8 13 22 13 30 1z m-45 -41 c0 -11 -2 -20 -4 -20
-2 0 -6 9 -9 20 -3 11 -1 20 4 20 5 0 9 -9 9 -20z m-53 -27 c-11 -3 -16 -11
-13 -21 13 -45 14 -72 1 -33 -16 48 -13 62 13 60 15 -1 15 -2 -1 -6z m57 -14
c-3 -6 -2 -14 5 -18 6 -4 12 -29 13 -57 l3 -49 -35 -1 -35 -2 34 5 c33 4 33 5
27 46 -4 22 -12 47 -17 54 -10 11 -5 33 7 33 3 0 2 -5 -2 -11z m-488 -148 c-4
-5 0 -11 6 -14 7 -3 3 -4 -9 -4 -17 1 -19 4 -11 14 12 15 22 18 14 4z m689 -1
c7 -11 -34 -23 -66 -18 -16 2 -23 -2 -21 -10 1 -8 -11 -19 -28 -25 -16 -6 -30
-15 -30 -19 0 -4 -5 -8 -11 -8 -20 0 10 28 38 35 14 3 23 9 19 12 -15 15 18
33 53 28 27 -4 31 -3 16 4 -19 9 -19 10 2 10 12 1 25 -3 28 -9z m-196 -15
c-33 -18 -44 -42 -21 -48 10 -3 5 -5 -11 -6 -27 -1 -27 -1 -11 24 17 26 41 44
59 44 6 0 -2 -6 -16 -14z m31 -71 c31 -7 32 -7 26 -53 -4 -25 -7 -59 -9 -74
-3 -38 -51 -77 -95 -77 -18 0 -40 -4 -50 -9 -9 -4 -33 -16 -52 -26 -19 -10
-32 -15 -28 -10 4 4 1 17 -7 27 -16 24 -9 49 11 41 8 -3 14 1 14 10 0 8 14 27
30 40 21 18 30 35 30 56 0 16 4 41 10 55 8 22 16 26 49 26 21 0 53 -3 71 -6z
m-312 -37 c2 -9 -2 -17 -8 -17 -6 0 -8 5 -4 11 3 6 0 16 -7 21 -12 8 -11 9 1
5 8 -2 16 -11 18 -20z m412 -6 c0 -11 -4 -22 -9 -25 -5 -4 -7 3 -4 13 3 13 -1
21 -14 24 -15 4 -14 5 5 6 16 1 22 -5 22 -18z m-945 -11 c3 -5 1 -10 -4 -10
-6 0 -11 5 -11 10 0 6 2 10 4 10 3 0 8 -4 11 -10z m5032 -48 c-3 -12 -5 -11
-6 6 -1 23 -15 30 -26 12 -3 -5 0 -10 7 -10 10 0 10 -2 0 -9 -10 -6 -7 -10 12
-15 28 -7 32 -17 63 -171 10 -49 20 -91 24 -93 3 -1 4 -17 2 -35 -3 -27 -2
-29 7 -12 7 15 9 9 4 -25 -4 -33 -2 -41 5 -30 9 12 11 11 11 -7 0 -13 -9 -32
-20 -43 -11 -11 -16 -20 -10 -20 5 0 7 -7 4 -15 -4 -8 -2 -15 4 -15 13 0 29
-50 37 -115 4 -27 8 -62 11 -76 6 -32 -37 -89 -67 -89 -11 0 -18 -4 -15 -9 8
-13 -75 -91 -96 -91 -9 0 -23 -6 -31 -14 -21 -21 -63 8 -130 89 -61 73 -86
139 -68 173 6 11 11 35 11 53 0 18 10 48 23 66 21 31 25 33 65 27 52 -8 68 4
77 57 4 21 11 39 16 39 5 0 9 10 9 22 0 12 9 47 19 77 27 80 32 150 15 201 -8
24 -13 48 -11 54 3 6 4 14 3 17 0 4 8 17 18 28 17 19 21 20 29 6 4 -9 6 -23 4
-33z m-4463 6 c-3 -5 -11 -5 -18 1 -16 13 -26 4 -26 -22 0 -17 2 -18 18 -6 15
13 16 12 3 -3 -7 -10 -17 -15 -22 -12 -14 8 -11 52 4 57 18 6 48 -4 41 -15z
m-546 -123 c-3 -3 -9 2 -12 12 -6 14 -5 15 5 6 7 -7 10 -15 7 -18z m222 -52
c-30 -5 -32 -7 -15 -13 15 -7 16 -9 4 -9 -9 -1 -21 5 -27 12 -9 10 -3 13 31
14 39 0 39 0 7 -4z m137 -10 c-20 -2 -52 -2 -70 0 -17 2 0 4 38 4 39 0 53 -2
32 -4z m-84 -67 c-30 -50 -43 -55 -64 -29 -13 15 -11 16 14 11 24 -5 30 0 49
33 12 21 23 37 25 35 2 -2 -9 -24 -24 -50z m-29 4 c10 -13 9 -13 -6 -1 -10 7
-18 21 -17 30 0 13 1 14 6 1 3 -8 11 -22 17 -30z m2642 -12 c4 -7 3 -8 -4 -4
-7 4 -12 2 -12 -3 0 -6 -4 -11 -10 -11 -5 0 -7 7 -4 15 7 18 20 19 30 3z
m-2923 -15 c-7 -2 -19 -2 -25 0 -7 3 -2 5 12 5 14 0 19 -2 13 -5z m18 -42 c1
18 2 20 6 5 10 -36 -13 -36 -48 1 l-34 38 38 -34 c37 -35 37 -35 38 -10z m169
-11 c-25 -4 -58 -12 -73 -18 -45 -19 -46 -12 -2 8 22 10 58 18 80 18 l40 -1
-45 -7z m26 -25 c-11 -8 -27 -15 -35 -15 -9 1 -2 7 14 15 39 18 44 18 21 0z
m-154 -12 c-6 -2 -9 -10 -6 -15 4 -7 2 -8 -5 -4 -13 9 -5 26 12 25 9 0 8 -2
-1 -6z m64 -25 c-9 -5 -22 -7 -29 -4 -7 2 -4 5 6 5 9 1 17 6 17 12 0 5 5 7 11
3 8 -5 6 -10 -5 -16z m1892 -109 c3 -22 -2 -29 -27 -37 -16 -6 -32 -8 -35 -6
-3 2 -4 1 -1 -3 3 -3 0 -12 -6 -20 -9 -10 -5 -21 17 -49 58 -71 74 -97 80
-133 4 -20 16 -52 28 -71 11 -19 19 -41 18 -49 -2 -7 0 -11 5 -8 4 3 9 -10 10
-29 2 -34 1 -34 -43 -34 -59 0 -106 21 -124 54 -13 24 -12 33 1 71 l16 44 -38
37 c-36 35 -39 42 -39 94 0 63 -8 100 -21 100 -6 0 -12 -7 -15 -15 -8 -19 4
-67 15 -61 4 3 8 -9 8 -27 l0 -32 -18 40 c-24 55 -24 92 1 100 11 3 25 15 31
26 14 27 45 39 94 36 35 -2 40 -5 43 -28z m3194 -18 c2 -17 1 -28 -4 -25 -8 5
-12 54 -4 54 2 0 6 -13 8 -29z m-3902 -6 c23 -12 30 -22 30 -46 0 -26 3 -30
18 -24 9 4 42 9 72 11 47 4 62 0 105 -24 53 -30 61 -52 41 -109 -6 -20 -4 -23
18 -23 26 0 36 23 16 35 -5 3 -10 1 -10 -6 0 -7 -2 -10 -5 -7 -3 3 -3 13 1 22
6 15 7 15 20 -1 44 -58 -29 -74 -159 -37 -46 14 -83 20 -85 15 -2 -6 -10 -7
-18 -4 -8 3 -26 -5 -39 -17 -21 -20 -31 -22 -71 -16 -26 3 -53 11 -60 17 -21
18 -26 63 -9 95 8 16 15 34 15 40 0 14 69 94 81 94 6 0 23 -7 39 -15z m-603
-100 c21 -13 45 -31 54 -40 9 -8 22 -15 29 -15 20 0 70 -51 70 -71 0 -9 -7
-22 -15 -29 -12 -10 -28 -4 -87 33 -70 44 -154 128 -141 141 14 13 54 5 90
-19z m3813 -26 c0 -11 -4 -18 -9 -14 -6 3 -9 14 -8 25 2 24 17 15 17 -11z
m-3899 -76 c61 -54 115 -99 119 -101 5 -2 17 7 28 18 16 17 24 20 39 12 17
-10 17 -11 -4 -19 -12 -4 -23 -12 -25 -18 -2 -5 -10 -10 -18 -10 -8 -1 -33
-12 -55 -24 -22 -12 -31 -19 -20 -15 11 4 29 6 40 6 10 -1 26 4 35 10 13 11
13 10 0 -5 -9 -9 -36 -18 -65 -20 -27 -3 -70 -14 -95 -26 -71 -33 -80 -29 -80
28 0 27 4 61 10 76 5 14 6 24 1 21 -5 -3 -13 26 -18 64 -7 64 -9 69 -21 49 -8
-11 -10 -19 -5 -16 4 3 9 -21 11 -53 2 -58 1 -60 -39 -92 -36 -29 -40 -36 -34
-65 3 -18 2 -33 -3 -33 -6 0 -10 6 -9 13 1 31 -4 50 -10 43 -5 -4 -8 -11 -8
-14 0 -14 -16 -32 -28 -32 -6 0 -2 7 9 15 37 28 3 15 -38 -15 -55 -40 -81 -39
-108 5 -24 39 -37 47 -20 13 11 -22 10 -22 -4 -4 -11 13 -16 15 -16 6 0 -7 -3
-10 -6 -7 -4 4 -1 13 6 21 6 9 10 21 7 28 -7 20 12 48 39 58 13 5 24 14 24 20
0 6 -6 8 -12 4 -7 -4 -10 -4 -6 0 3 4 9 7 13 6 3 0 19 16 34 37 32 45 71 73
101 73 11 0 37 9 57 20 21 11 43 20 50 20 8 0 63 -44 124 -97z m3884 7 c-7
-22 5 -26 23 -8 9 9 12 9 12 1 0 -7 -5 -15 -10 -18 -16 -10 -50 5 -50 21 0 8
5 12 10 9 7 -4 9 3 5 22 -5 23 -4 25 5 10 6 -9 8 -26 5 -37z m-28 -52 c-3 -8
-6 -5 -6 6 -1 11 2 17 5 13 3 -3 4 -12 1 -19z m31 -8 c-7 -10 -14 -17 -17 -15
-4 4 18 35 25 35 2 0 -1 -9 -8 -20z m-3417 -20 c11 -6 19 -21 19 -36 0 -14 4
-23 9 -19 17 10 24 -18 8 -30 -14 -10 -12 -14 14 -29 36 -21 37 -43 4 -78 -20
-22 -30 -26 -48 -19 -25 9 -50 4 -41 -10 7 -12 94 -12 94 1 0 12 75 51 84 43
3 -3 11 -1 18 5 20 16 60 18 96 3 26 -11 38 -11 62 -1 59 25 82 -28 49 -116
-31 -82 -50 -98 -110 -91 -26 3 -61 2 -77 -3 -44 -12 -174 14 -242 48 -49 24
-60 27 -75 16 -10 -8 -21 -11 -25 -9 -4 3 -11 -11 -14 -30 -4 -19 -11 -35 -17
-35 -6 0 -7 -6 -3 -12 4 -7 4 -10 -1 -6 -4 4 -14 3 -20 -2 -14 -12 -104 29
-135 60 -10 10 -37 21 -61 24 -54 9 -119 37 -119 53 0 6 26 35 58 63 31 29 52
49 46 46 -7 -3 -14 0 -17 8 -4 11 1 11 26 2 18 -6 38 -15 45 -20 12 -7 12 -4
2 14 -6 12 -10 23 -8 25 2 1 19 12 38 24 19 11 31 21 25 21 -5 0 11 20 35 45
44 45 70 57 70 32 0 -8 8 -21 19 -31 10 -9 26 -34 36 -56 10 -22 26 -42 36
-45 11 -4 19 -11 19 -16 0 -5 5 -9 10 -9 6 0 10 10 10 23 0 12 12 33 26 46 25
25 26 25 5 33 -12 4 -21 14 -21 22 0 8 -3 16 -7 19 -5 2 -2 2 4 1 7 -2 17 6
23 16 12 23 23 25 51 10z m3384 0 c3 -5 1 -10 -4 -10 -6 0 -11 5 -11 10 0 6 2
10 4 10 3 0 8 -4 11 -10z m401 -52 c26 -29 26 -30 2 -10 -24 22 -27 22 -31 5
-3 -12 -5 -9 -6 10 0 15 0 27 2 27 2 0 16 -15 33 -32z m-4404 -27 c-7 -30 -9
-32 -21 -17 -12 14 -11 19 4 36 23 25 25 23 17 -19z m4403 -1 c3 -5 1 -10 -4
-10 -6 0 -11 5 -11 10 0 6 2 10 4 10 3 0 8 -4 11 -10z m-4365 -40 c0 -11 -4
-20 -9 -20 -5 0 -7 9 -4 20 3 11 7 20 9 20 2 0 4 -9 4 -20z m100 -32 c-30 -49
-26 -67 8 -37 25 22 25 21 -3 -9 -24 -27 -31 -30 -33 -17 -4 20 27 95 39 95 5
0 0 -15 -11 -32z m4201 5 c-12 -20 -14 -14 -5 12 4 9 9 14 11 11 3 -2 0 -13
-6 -23z m105 8 c-3 -5 -15 -7 -26 -4 -28 7 -25 13 6 13 14 0 23 -4 20 -9z
m-4694 -23 c-6 -7 -25 -21 -44 -31 -32 -17 -32 -17 -8 0 13 10 31 25 40 34 17
18 28 16 12 -3z m166 15 c-10 -2 -28 -2 -40 0 -13 2 -5 4 17 4 22 1 32 -1 23
-4z m4387 -3 c3 -5 1 -10 -4 -10 -6 0 -11 5 -11 10 0 6 2 10 4 10 3 0 8 -4 11
-10z m-4635 -10 c-8 -5 -27 -10 -42 -10 -21 0 -28 -5 -28 -19 0 -17 5 -19 38
-14 48 7 39 -2 -10 -11 -37 -7 -38 -6 -38 23 0 27 3 30 38 34 20 2 42 4 47 5
6 1 3 -3 -5 -8z m1881 -292 c16 -18 29 -36 29 -41 0 -4 14 -13 30 -18 17 -6
30 -16 30 -22 0 -7 16 -22 35 -34 21 -14 32 -28 29 -37 -3 -8 0 -17 6 -21 16
-10 -8 -35 -34 -35 -34 0 -71 24 -71 45 0 11 -7 21 -15 21 -8 1 -20 2 -27 3
-6 0 -15 11 -19 23 -3 12 -19 32 -34 44 -26 23 -46 76 -34 95 11 19 46 8 75
-23z m-552 -155 c6 -13 9 -23 7 -23 -11 0 -36 60 -35 82 1 19 2 18 8 -7 4 -16
13 -40 20 -52z m16 67 c3 -6 -1 -7 -9 -4 -18 7 -21 14 -7 14 6 0 13 -4 16 -10z
m3106 -17 c-8 -15 -10 -15 -11 -2 0 17 10 32 18 25 2 -3 -1 -13 -7 -23z
m-2349 -7 c11 -16 -4 -37 -22 -31 -12 4 -20 0 -23 -12 -3 -10 -5 -2 -6 18 -1
31 2 35 22 35 12 -1 25 -5 29 -10z m2326 -41 c-6 -14 -13 -23 -15 -21 -5 5 15
46 22 46 3 0 -1 -11 -7 -25z m-3031 -42 c-3 -10 -5 -4 -5 12 0 17 2 24 5 18 2
-7 2 -21 0 -30z m2998 -3 c-3 -5 -12 -10 -18 -10 -7 0 -6 4 3 10 19 12 23 12
15 0z m-4907 -17 c-9 -10 -14 -23 -11 -29 2 -6 -4 -17 -14 -25 -16 -13 -17
-12 -4 4 16 20 8 34 -12 21 -7 -5 1 3 18 18 34 31 45 36 23 11z m1914 -52 c15
-14 30 -39 33 -56 4 -16 9 -39 11 -50 4 -16 3 -17 -4 -5 -5 8 -12 32 -16 52
-4 22 -15 42 -26 48 -11 6 -27 25 -35 43 -8 18 -10 23 -3 13 7 -11 25 -31 40
-45z m56 17 c11 -18 23 -51 26 -73 l6 -40 -14 45 c-7 26 -21 58 -31 73 -9 15
-15 27 -12 27 3 0 14 -15 25 -32z m831 -21 c-2 -1 -12 -9 -22 -16 -15 -12 -17
-12 -11 3 3 9 13 16 22 16 8 0 13 -1 11 -3z m1108 -26 c-17 -6 -17 -8 -3 -20
8 -7 20 -10 26 -6 6 4 9 1 8 -7 -2 -7 4 -12 12 -10 8 2 12 0 8 -4 -4 -4 -2
-14 5 -22 6 -9 -11 2 -39 24 -48 37 -53 55 -14 53 11 0 9 -3 -3 -8z m638 -19
c-44 -27 -58 -48 -53 -81 2 -17 1 -28 -4 -25 -14 9 -8 58 10 80 18 22 50 43
67 44 6 0 -3 -8 -20 -18z m128 3 c4 -8 2 -17 -3 -20 -6 -4 -10 3 -10 14 0 25
6 27 13 6z m-81 -31 c-9 -16 -10 -14 -9 8 1 15 6 23 11 18 4 -4 4 -16 -2 -26z
m-586 -44 c0 -13 -4 -16 -10 -10 -14 14 -16 39 -2 34 6 -2 12 -13 12 -24z
m-1936 -29 c0 -8 -1 -12 -3 -10 -1 2 -11 15 -22 28 l-20 24 23 -14 c12 -8 22
-20 22 -28z m-80 -13 c15 -21 17 -28 6 -19 -16 13 -41 51 -33 51 2 0 14 -15
27 -32z m2571 -48 c5 0 11 11 15 25 4 14 8 24 11 22 8 -8 -9 -57 -20 -57 -14
0 -57 40 -57 53 0 5 9 -2 21 -17 11 -14 25 -26 30 -26z m-2432 -48 c0 -12 -3
-9 -10 8 -6 14 -18 34 -27 45 -9 12 -5 8 11 -7 15 -16 27 -36 26 -46z m-94 28
c3 -5 1 -10 -4 -10 -6 0 -11 5 -11 10 0 6 2 10 4 10 3 0 8 -4 11 -10z m106
-93 c6 14 8 15 8 2 2 -32 -14 -28 -56 13 -24 23 -43 46 -43 50 0 4 19 -13 42
-38 37 -40 43 -43 49 -27z m145 -83 c1 -29 1 -29 -3 -1 -5 30 -12 33 -33 15
-12 -11 -12 -10 -1 5 19 25 36 16 37 -19z m-59 -1 c-4 -3 -1 -13 5 -22 8 -10
3 -8 -12 4 -14 11 -27 21 -29 22 -2 2 6 3 19 3 13 0 20 -3 17 -7z m48 -51 c-3
-3 -11 0 -18 7 -9 10 -8 11 6 5 10 -3 15 -9 12 -12z m2030 -250 c-3 -3 -5 1
-6 9 0 9 -4 6 -10 -6 -8 -17 -9 -16 -5 8 2 15 -1 30 -5 33 -5 3 -9 15 -9 27 0
15 6 9 20 -22 11 -24 18 -46 15 -49z m30 -55 c8 -20 13 -37 10 -37 -5 0 -35
67 -35 78 0 11 10 -5 25 -41z m-3435 -157 c0 -5 -2 -10 -4 -10 -3 0 -8 5 -11
10 -3 6 -1 10 4 10 6 0 11 -4 11 -10z m3657 -96 c-3 -3 -12 -4 -19 -1 -8 3 -5
6 6 6 11 1 17 -2 13 -5z m100 -77 c4 -6 -14 6 -40 27 -26 21 -47 40 -47 43 0
7 78 -56 87 -70z m-251 36 c-7 -7 -26 7 -26 19 0 6 6 6 15 -2 9 -7 13 -15 11
-17z m120 18 c-11 -17 5 -39 35 -51 16 -7 28 -15 25 -17 -8 -8 -63 26 -70 42
-9 24 -7 35 5 35 5 0 8 -4 5 -9z m159 -82 c-4 -5 -12 -9 -18 -8 -9 0 -8 2 1 6
6 2 9 10 6 15 -4 7 -2 8 5 4 6 -4 9 -12 6 -17z m-60 1 c3 -6 -1 -7 -9 -4 -18
7 -21 14 -7 14 6 0 13 -4 16 -10z m-2542 -215 c4 -8 2 -17 -3 -20 -6 -4 -10 3
-10 14 0 25 6 27 13 6z m-783 -885 c0 -5 -6 -9 -12 -7 -7 1 -12 -3 -11 -9 1
-7 -6 -19 -15 -27 -16 -15 -18 -15 -19 6 -2 17 0 19 7 7 5 -8 10 -12 11 -7 1
4 2 10 3 15 5 25 36 45 36 22z"/>
<path d="M3157 6969 c-27 -51 -33 -69 -23 -69 10 0 13 6 9 17 -6 15 -5 16 9 3
14 -13 14 -16 1 -24 -9 -5 -35 -9 -58 -10 -25 0 -51 -8 -62 -18 -10 -10 -41
-27 -68 -39 -81 -36 -82 -40 -23 -98 l53 -50 -23 -46 c-12 -26 -19 -51 -16
-57 5 -7 2 -8 -6 -3 -22 14 -1 -56 35 -115 39 -65 61 -82 75 -60 8 13 10 12
10 -2 0 -12 -8 -18 -23 -18 -16 0 -33 17 -65 67 -23 37 -42 75 -42 84 0 18
-15 32 -38 35 -8 2 -15 4 -16 6 -1 2 -12 17 -25 35 l-22 32 -30 -18 c-17 -10
-39 -17 -49 -14 -12 3 -22 -3 -31 -19 -6 -12 -39 -54 -72 -93 -97 -112 -91
-103 -77 -120 11 -13 10 -15 -6 -9 -18 5 -18 5 -1 -6 9 -6 17 -16 17 -23 0
-15 82 -18 92 -3 4 6 6 1 5 -11 -1 -17 -5 -20 -19 -12 -10 5 -18 7 -18 5 0 -3
14 -13 31 -22 17 -8 28 -11 24 -5 -3 7 -3 11 2 10 21 -4 24 2 12 19 -10 12 -8
12 10 -3 19 -16 20 -21 7 -23 -11 -3 -14 -11 -9 -32 8 -43 -4 -80 -27 -80 -16
0 -18 -5 -14 -32 6 -41 -7 -62 -32 -54 -31 11 -72 49 -76 71 -4 23 -39 46 -52
33 -23 -20 -38 -8 -31 24 l7 31 -27 -21 c-30 -24 -45 -28 -45 -11 0 5 5 7 11
3 8 -4 9 3 4 25 -6 28 -4 31 16 31 22 0 22 0 3 -16 -13 -11 -9 -10 14 3 l34
18 -39 3 c-21 2 -43 8 -49 13 -8 7 -14 6 -18 0 -4 -6 -48 -8 -109 -6 -118 4
-127 5 -127 17 0 4 -7 8 -15 8 -8 0 -15 -7 -15 -15 0 -13 -7 -15 -37 -9 -45 8
-55 13 -48 24 2 4 -9 13 -25 20 -17 7 -41 26 -55 41 -13 16 -29 29 -36 29 -17
0 -107 59 -122 79 -7 10 -20 20 -30 24 -10 4 -25 20 -34 35 -9 16 -26 33 -37
38 -12 5 -22 19 -24 31 -4 25 -32 37 -64 28 -15 -4 -18 -3 -10 3 10 7 8 12 -6
25 -18 16 -20 16 -37 -3 -16 -17 -16 -20 -2 -20 9 0 19 -4 22 -10 4 -6 -3 -6
-21 0 -15 6 -29 8 -32 6 -2 -3 -43 21 -91 54 l-87 58 15 -79 c9 -43 19 -79 23
-79 3 0 5 8 3 18 -1 9 0 11 2 5 3 -10 10 -10 25 -2 11 6 22 8 26 5 3 -3 0 -6
-6 -6 -6 0 -26 -13 -44 -28 -39 -34 -107 -62 -148 -62 -16 0 -39 -10 -53 -22
-22 -21 -24 -30 -21 -100 1 -43 -2 -78 -7 -78 -5 0 -9 -5 -9 -11 0 -5 5 -7 10
-4 6 3 10 2 10 -3 0 -16 -40 -22 -147 -22 -91 0 -103 -2 -103 -17 -1 -10 -9
-82 -18 -160 l-18 -143 -41 -42 c-93 -95 -146 -156 -145 -164 0 -5 29 -18 64
-30 l63 -21 4 -54 c2 -30 3 -83 2 -119 -2 -74 11 -75 15 0 3 58 9 70 34 70 18
0 18 -2 -2 -62 -12 -35 -25 -64 -29 -66 -4 -2 -20 -14 -36 -28 -15 -13 -44
-29 -63 -35 -19 -6 -66 -26 -105 -44 -38 -18 -122 -51 -185 -75 -63 -24 -116
-44 -118 -46 -15 -12 89 7 156 29 46 15 90 27 98 27 7 0 14 4 14 9 0 5 10 7
22 3 15 -3 19 -2 14 7 -6 9 0 10 20 5 19 -5 25 -4 20 5 -8 13 0 13 29 2 14 -6
32 -1 59 16 l38 25 -4 -40 -3 -41 60 34 c33 19 60 39 60 46 0 6 17 25 37 43
28 23 35 35 28 46 -8 12 -12 12 -32 -5 -13 -11 -10 -7 6 9 l30 30 7 -25 c5
-20 -1 -31 -35 -61 -22 -21 -38 -38 -34 -38 13 0 289 162 284 167 -2 3 -17 -3
-33 -12 l-28 -17 25 21 c14 11 19 21 12 21 -22 0 -51 -20 -48 -33 1 -6 1 -9
-1 -4 -3 4 -11 7 -19 7 -8 0 -14 5 -14 11 0 5 4 7 10 4 5 -3 21 2 35 11 20 13
31 14 56 5 17 -6 35 -9 39 -6 4 3 78 -20 165 -50 86 -30 158 -55 161 -55 2 0
4 5 4 11 0 5 -3 8 -7 6 -5 -3 -17 0 -28 4 -18 9 -18 9 3 5 32 -6 28 6 -19 54
-22 23 -31 37 -20 31 44 -24 98 -119 108 -188 3 -24 8 -43 12 -43 3 0 6 -17 7
-37 0 -21 2 -57 5 -80 3 -23 0 -76 -8 -118 -10 -59 -10 -81 0 -103 11 -26 12
-25 15 26 2 28 6 52 10 52 15 0 63 -71 55 -83 -5 -8 -10 -4 -15 13 -6 18 -6
15 -2 -10 3 -19 8 -60 11 -90 3 -30 9 -59 13 -65 15 -20 52 -250 47 -292 -2
-23 -14 -60 -26 -83 -11 -22 -21 -47 -21 -54 0 -7 -16 -42 -35 -78 -31 -60
-33 -67 -19 -84 14 -18 15 -18 5 3 -7 14 -8 24 -1 28 5 3 11 -4 11 -17 2 -36
3 -41 18 -75 11 -27 11 -44 1 -95 -6 -35 -15 -82 -19 -106 l-8 -43 27 26 c14
14 29 25 33 25 4 0 29 -14 56 -31 46 -28 53 -37 81 -112 18 -45 41 -97 52
-115 11 -18 22 -49 23 -69 l4 -35 -20 21 c-11 11 -23 21 -26 21 -4 0 5 -12 19
-27 39 -42 53 -79 73 -183 10 -52 20 -98 22 -102 2 -5 22 1 44 13 l40 20 -31
42 -32 42 34 -39 35 -38 43 22 43 22 18 -23 c20 -25 21 -28 23 -71 2 -24 -2
-28 -26 -28 -15 0 -28 -4 -28 -9 0 -5 -10 -7 -22 -5 -13 3 4 -7 37 -21 33 -14
65 -23 73 -20 7 2 11 1 8 -4 -3 -5 19 -19 49 -31 30 -12 55 -26 55 -31 0 -5 6
-9 14 -9 8 0 26 -14 40 -31 17 -20 26 -25 26 -15 0 23 26 19 44 -6 9 -12 16
-17 16 -10 0 16 43 15 85 -2 18 -8 36 -12 39 -8 3 3 6 1 6 -4 0 -6 16 -16 35
-23 19 -7 35 -17 35 -23 0 -5 6 -8 13 -5 6 2 46 -12 87 -32 70 -34 77 -40 107
-97 57 -107 185 -455 181 -491 -3 -24 0 -33 11 -33 11 0 11 -4 -4 -20 -11 -12
-15 -28 -12 -41 3 -12 2 -31 -3 -43 -7 -19 -5 -22 13 -22 20 1 22 -4 22 -46 0
-27 -3 -48 -7 -48 -5 0 -8 -5 -8 -12 0 -6 10 -2 23 10 13 12 28 22 35 22 13 0
113 -204 160 -325 33 -87 62 -190 62 -224 0 -12 4 -21 9 -21 10 0 54 -111 46
-118 -3 -3 -5 1 -6 9 0 9 -4 6 -10 -6 -7 -16 -8 -13 -4 13 2 17 0 32 -5 32 -6
0 -10 12 -10 27 0 14 -2 24 -5 21 -5 -4 60 -523 69 -553 1 -5 8 19 16 53 8 38
11 96 8 150 -3 48 -2 76 2 62 20 -64 5 -242 -22 -277 -5 -6 -5 -29 1 -55 17
-76 33 -289 23 -301 -5 -7 -6 -21 -2 -32 4 -12 2 -31 -7 -48 -12 -24 -12 -30
2 -44 13 -13 15 -31 11 -103 -5 -84 -5 -88 20 -111 33 -30 77 -99 70 -107 -11
-10 27 -42 51 -42 15 0 42 -17 71 -45 26 -24 71 -66 100 -92 l54 -48 -7 50
c-4 28 -8 54 -9 60 0 5 14 16 32 24 17 8 32 17 32 21 0 3 -18 16 -39 28 -44
25 -45 25 -66 137 -20 108 -19 129 10 175 l25 39 -35 27 c-35 26 -45 44 -24
44 5 0 7 -4 4 -10 -3 -5 -4 -10 -2 -10 5 0 177 257 177 264 0 10 -34 -2 -38
-14 -3 -7 0 -10 7 -6 7 5 9 1 4 -9 -4 -12 -8 -13 -13 -5 -11 17 -22 -4 -14
-27 4 -13 3 -15 -4 -4 -12 17 -24 -1 -16 -26 4 -13 3 -15 -4 -4 -12 17 -24 -1
-16 -26 4 -13 3 -15 -4 -4 -11 15 -27 -2 -17 -19 5 -8 -42 -90 -52 -90 -2 0
-1 4 2 10 9 14 -8 13 -23 -2 -9 -9 -12 -9 -12 0 0 6 12 15 26 18 23 6 49 44
46 69 -1 16 161 249 176 251 7 1 8 0 2 -3 -5 -2 -8 -9 -4 -14 3 -5 0 -8 -7 -7
-6 2 -14 -3 -17 -11 -3 -9 0 -11 9 -6 8 5 11 4 6 -1 -5 -5 -14 -9 -19 -9 -6 0
-13 -5 -15 -11 -2 -6 3 -11 11 -11 9 0 28 20 43 44 15 24 31 43 35 43 4 0 8 6
8 13 0 6 36 66 80 131 44 66 80 126 80 133 0 7 4 13 9 13 10 0 107 151 103
163 -1 4 2 7 7 7 4 0 34 40 65 90 72 112 95 132 147 124 27 -5 39 -3 39 5 0 7
-5 9 -12 5 -7 -4 -8 -3 -4 4 11 19 24 14 29 -10 2 -13 5 -6 6 17 0 22 9 72 20
110 23 86 35 147 32 160 -2 5 1 7 5 2 6 -6 132 177 207 300 5 8 -9 21 -40 38
-58 30 -83 46 -101 62 -7 7 -18 13 -24 13 -6 0 -25 11 -43 24 -30 23 -106 51
-132 49 -7 0 -10 4 -6 10 4 6 0 8 -11 4 -9 -4 -15 -3 -12 1 3 5 -20 21 -50 35
-31 15 -53 23 -49 17 3 -6 0 -7 -9 -4 -9 3 -13 10 -11 15 5 8 -105 70 -122 69
-4 -1 18 -14 50 -31 31 -16 57 -32 57 -34 0 -3 -27 8 -60 25 -33 17 -59 34
-57 38 1 4 -8 17 -21 30 -23 23 -30 52 -12 52 24 0 7 18 -30 33 -22 8 -40 22
-40 29 0 9 -22 18 -64 25 -36 6 -90 23 -122 37 l-57 26 46 37 c53 43 49 48
-40 56 -43 3 -68 11 -84 26 -16 14 -26 18 -34 11 -7 -6 -28 -10 -46 -11 -115
-1 -125 1 -217 46 -99 48 -114 53 -106 31 8 -21 -9 -26 -31 -10 -10 8 -14 14
-9 14 6 0 15 -5 21 -11 9 -9 12 -7 10 10 -1 18 -24 34 -111 79 -61 31 -114 59
-118 60 -4 2 -8 -8 -8 -22 0 -14 -5 -26 -10 -26 -9 0 -289 137 -299 146 -13
12 33 76 66 94 33 18 21 20 -23 3 -6 -2 -14 6 -17 18 l-6 21 -34 -21 c-27 -16
-61 -23 -169 -31 -75 -5 -143 -7 -152 -4 -8 3 -18 15 -22 26 -8 26 5 146 17
153 5 4 9 20 9 37 0 62 25 93 101 123 69 28 70 28 123 12 68 -22 87 -22 79 -1
-7 20 13 34 50 34 23 0 50 -22 138 -109 60 -60 111 -106 114 -101 3 5 8 30 11
57 4 31 30 93 71 173 35 69 57 116 49 106 -9 -11 -16 -16 -16 -12 0 5 -8 3
-17 -4 -10 -7 -4 -1 12 14 17 14 37 33 45 40 8 8 30 20 48 28 32 13 34 16 35
68 2 47 8 65 42 115 34 50 53 67 116 100 41 22 95 53 118 68 57 38 97 54 274
112 143 48 146 49 117 61 -16 7 -30 17 -30 23 0 13 56 31 97 31 31 0 34 -2 29
-22 -3 -13 -3 -18 0 -12 6 14 42 7 65 -12 9 -8 19 -11 24 -7 4 5 5 3 2 -4 -7
-10 41 -58 50 -50 2 2 -4 21 -12 41 -9 21 -19 66 -22 101 l-6 64 37 21 c20 12
33 26 30 31 -3 5 1 6 8 4 8 -3 21 0 31 7 15 12 11 17 -36 46 -49 31 -38 15 13
-19 18 -12 21 -17 10 -24 -9 -5 -11 -4 -6 3 4 7 3 12 -3 12 -13 0 -121 103
-121 116 0 6 -14 20 -30 33 -17 12 -28 26 -25 31 3 5 -7 16 -23 24 -36 19 -65
61 -70 101 -1 17 -9 50 -17 75 -8 25 -14 74 -14 110 0 36 1 89 1 119 0 30 3
49 7 42 5 -7 13 33 20 89 6 56 9 105 6 110 -3 4 -15 6 -28 4 -20 -4 -20 -4 -2
4 14 7 27 4 44 -9 23 -18 24 -18 57 14 19 17 47 38 62 47 16 9 28 25 30 39 3
27 -16 54 -33 47 -7 -2 -18 0 -26 6 -11 8 -10 9 4 4 26 -8 21 -2 -28 33 -43
30 -58 65 -38 84 3 4 7 36 7 71 1 59 -1 66 -25 82 -15 10 -34 31 -44 46 -9 16
-28 36 -41 45 -44 28 -78 149 -55 192 11 20 10 21 -51 22 -35 1 -81 3 -103 5
-22 1 -48 3 -58 4 -10 1 -20 7 -23 14 -6 15 -62 12 -78 -4 -6 -6 -32 -10 -60
-10 l-50 0 38 34 c20 19 42 37 49 39 7 2 -10 9 -38 15 -27 6 -52 9 -56 6 -4
-2 -9 1 -11 7 -6 17 -53 -9 -78 -44 -13 -16 -18 -27 -12 -23 6 3 13 2 17 -4 3
-5 -3 -10 -14 -10 -24 0 -26 20 -12 84 7 28 7 36 -2 27 -16 -16 -27 -14 -27 7
0 9 -4 13 -8 7 -4 -5 -12 -11 -19 -12 -7 -2 -35 -16 -62 -33 -36 -22 -48 -35
-44 -48 2 -10 -2 -24 -10 -31 -17 -14 -8 -62 17 -90 8 -9 21 -32 29 -52 16
-40 12 -52 -41 -118 l-20 -24 -32 44 c-17 24 -38 57 -46 72 -8 15 -18 26 -22
23 -13 -8 -33 10 -34 30 -1 26 27 127 43 151 6 11 27 28 45 38 l34 18 -26 23
c-30 28 -28 28 -67 8 -61 -32 -69 -35 -73 -31 -6 5 21 146 30 154 13 14 126
16 142 3 12 -11 15 -11 12 0 -2 9 8 13 32 14 33 1 35 3 32 31 -2 17 -12 43
-23 58 -16 22 -19 37 -14 68 4 21 4 39 1 39 -15 0 -45 -41 -51 -69 -13 -61
-42 -51 -73 27 -13 31 -27 64 -32 73 -5 9 -4 22 2 30 8 11 9 10 4 -3 -3 -10
-1 -18 4 -18 6 0 10 10 10 23 1 12 7 33 14 46 7 13 11 32 9 41 -3 9 0 43 6 75
6 32 10 59 8 61 -1 1 -19 -29 -40 -67z m16 -21 c-3 -15 -9 -25 -14 -23 -4 3
-3 17 3 30 14 31 18 28 11 -7z m-1723 -258 c32 -22 61 -44 65 -49 5 -10 -25
-31 -42 -31 -4 1 3 7 16 14 l24 13 -54 37 -54 36 -6 -27 c-4 -16 -7 -21 -8
-13 -1 8 -4 25 -7 38 -4 12 -3 22 0 22 4 0 34 -18 66 -40z m154 -18 c3 -5 -1
-9 -9 -9 -8 0 -12 4 -9 9 3 4 7 8 9 8 2 0 6 -4 9 -8z m1426 -98 c0 -2 -10 -8
-22 -14 -21 -10 -21 -10 -5 3 15 13 16 19 5 42 l-12 26 -18 -23 c-18 -23 -18
-22 -2 14 l17 37 19 -40 c10 -23 18 -43 18 -45z m0 -38 c0 -3 -4 -8 -10 -11
-5 -3 -10 -1 -10 4 0 6 5 11 10 11 6 0 10 -2 10 -4z m62 -33 c-4 -20 -7 -23
-10 -10 -2 10 -13 17 -30 18 -27 1 -27 1 3 9 17 4 33 8 36 9 3 0 4 -11 1 -26z
m-15 -75 c-3 -8 -6 -5 -6 6 -1 11 2 17 5 13 3 -3 4 -12 1 -19z m314 -59 c-12
-10 -29 -15 -37 -12 -12 4 -9 10 12 24 34 22 55 12 25 -12z m-69 -51 c-6 -6
-12 -5 -17 3 -6 8 -4 10 5 4 10 -6 12 -4 7 7 -3 9 -3 19 1 23 4 4 9 -1 10 -10
2 -9 -1 -22 -6 -27z m-2337 -48 c-3 -5 -13 -10 -21 -10 -8 0 -14 5 -14 10 0 6
9 10 21 10 11 0 17 -4 14 -10z m2595 -52 c0 -25 -7 -49 -17 -60 -25 -28 -25
-124 1 -154 15 -16 20 -35 19 -66 l-2 -43 15 40 c13 36 14 37 9 8 -5 -40 -52
-116 -65 -108 -6 4 -27 32 -47 63 -35 54 -38 63 -41 149 -2 51 -8 91 -13 87
-10 -6 -4 18 14 54 12 26 72 66 86 58 5 -4 12 -2 16 4 14 22 25 8 25 -32z m40
27 c-7 -8 -16 -15 -21 -15 -5 0 -9 7 -9 15 0 9 9 15 21 15 18 0 19 -2 9 -15z
m358 -7 c-2 -6 -11 -13 -19 -16 -12 -3 -12 -2 0 6 11 8 10 11 -5 15 -16 4 -15
5 4 6 14 1 22 -4 20 -11z m-518 -6 c0 -11 -22 -32 -32 -32 -5 0 -4 9 2 20 11
20 30 28 30 12z m-2508 -58 c-8 -14 -10 -11 -10 12 0 16 3 34 7 39 10 16 13
-33 3 -51z m1828 32 c0 -3 -4 -8 -10 -11 -5 -3 -10 -1 -10 4 0 6 5 11 10 11 6
0 10 -2 10 -4z m55 -16 c8 -13 -15 -13 -35 0 -12 8 -11 10 7 10 12 0 25 -4 28
-10z m-1865 -40 c0 -5 -5 -10 -11 -10 -5 0 -7 5 -4 10 3 6 8 10 11 10 2 0 4
-4 4 -10z m-33 -72 c-2 -13 -4 -5 -4 17 -1 22 1 32 4 23 2 -10 2 -28 0 -40z
m2237 31 c-3 -5 -10 -7 -15 -3 -5 3 -7 10 -3 15 3 5 10 7 15 3 5 -3 7 -10 3
-15z m-2204 -54 c-24 -25 -45 -45 -47 -45 -2 0 -3 10 -3 23 0 15 3 18 8 9 6
-9 16 -4 36 17 25 26 26 30 9 34 -11 3 -7 5 12 6 l29 1 -44 -45z m2252 -20 c3
0 10 -4 15 -9 5 -6 2 -6 -6 -1 -11 6 -13 4 -8 -8 9 -25 2 -21 -18 9 -11 17
-12 23 -4 18 8 -5 17 -9 21 -9z m95 -27 c-3 -7 -5 -2 -5 12 0 14 2 19 5 13 2
-7 2 -19 0 -25z m-131 -26 c-3 -2 -13 1 -22 6 -14 8 -26 5 -49 -10 l-30 -20
29 25 c24 21 33 23 53 14 13 -5 21 -12 19 -15z m-161 -2 c4 -6 11 -8 16 -5 5
4 9 -3 9 -13 0 -11 7 -25 15 -32 8 -7 15 -18 15 -25 0 -10 -12 -7 -40 8 -31
17 -40 28 -40 50 0 27 13 36 25 17z m313 -41 c2 -23 0 -30 -6 -20 -5 7 -7 22
-5 32 3 11 0 19 -6 19 -7 0 -9 -5 -5 -12 4 -7 3 -8 -5 -4 -14 9 -4 29 12 23 7
-2 13 -19 15 -38z m-138 18 c0 -2 -10 -12 -21 -23 -22 -19 -22 -19 -8 4 12 19
29 30 29 19z m-114 -16 c-10 -15 32 -44 55 -38 16 4 19 3 11 -5 -16 -16 -54
-2 -75 27 -16 22 -16 25 -2 25 9 0 14 -4 11 -9z m717 -41 c24 -19 53 -87 42
-99 -3 -2 -5 2 -5 10 0 24 -26 -23 -37 -68 -9 -36 -9 -41 6 -36 9 4 22 11 29
16 16 13 93 27 86 16 -3 -5 -14 -9 -25 -9 -14 0 -19 -7 -19 -25 0 -14 4 -25 9
-25 5 0 8 8 6 18 -1 9 0 11 2 4 3 -7 10 -9 16 -5 7 4 -1 -8 -17 -27 -42 -50
-96 -88 -136 -96 -19 -4 -46 -16 -60 -27 -23 -18 -23 -20 -4 -15 33 8 24 -18
-17 -48 -21 -16 -27 -24 -14 -20 43 11 157 36 169 36 8 0 24 -27 36 -59 15
-40 26 -58 35 -55 8 3 20 -5 28 -18 17 -26 49 -202 41 -223 -7 -17 -40 -11
-68 12 -19 17 -20 17 -7 1 7 -10 9 -18 3 -18 -15 0 -21 23 -18 79 3 39 -1 55
-13 64 -9 7 -31 31 -50 55 -22 28 -39 41 -50 38 -9 -3 -39 3 -68 13 l-51 17
-6 -29 c-3 -16 -6 -40 -6 -53 0 -13 -4 -24 -9 -24 -5 0 -5 21 0 47 5 26 7 54
4 61 -3 8 0 10 6 6 7 -4 10 -1 7 7 -3 8 -10 14 -16 14 -6 0 -17 6 -23 13 -10
9 -10 12 -1 12 7 0 12 -5 12 -12 0 -6 3 -8 6 -5 4 4 1 13 -6 22 -7 9 -10 18
-7 22 4 3 -9 24 -27 47 -60 74 -81 138 -40 122 8 -3 14 -1 14 4 0 6 9 10 20
10 11 0 20 4 20 10 0 5 15 20 33 32 21 15 31 30 29 43 -1 12 11 40 28 63 16
23 31 47 32 54 4 17 31 46 44 47 6 1 23 -8 37 -19z m-3004 -67 c-12 -15 -12
-16 6 -9 15 5 17 4 8 -5 -17 -17 -37 -1 -22 17 6 8 14 14 16 14 3 0 -1 -8 -8
-17z m2705 1 c3 -8 2 -12 -4 -9 -6 3 -10 10 -10 16 0 14 7 11 14 -7z m-2709
-92 c-3 -3 -11 0 -18 7 -9 10 -8 11 6 5 10 -3 15 -9 12 -12z m644 -139 c0 -11
-3 -13 -6 -5 -7 19 -34 14 -78 -13 -22 -13 -44 -24 -50 -25 -5 0 13 14 40 30
57 34 95 39 94 13z m31 -33 c-19 -5 -38 -6 -42 -2 -4 4 12 8 35 9 l42 1 -35
-8z m1943 -16 c7 1 9 1 4 -1 -4 -3 -4 -10 0 -16 4 -7 -2 -5 -12 3 -17 14 -17
14 -7 -5 6 -11 32 -42 58 -70 26 -27 41 -42 34 -32 -18 24 -7 21 16 -5 10 -12
13 -18 7 -14 -26 15 -11 -10 35 -59 44 -48 44 -43 -3 16 -11 14 -1 5 22 -20
23 -25 40 -47 38 -49 -2 -3 3 -17 12 -33 16 -27 16 -28 -16 -58 -18 -17 -39
-31 -47 -31 -19 0 -18 -6 12 -45 24 -32 24 -35 10 -62 -8 -15 -15 -24 -16 -20
0 5 5 17 11 28 8 17 5 27 -16 55 -26 33 -26 54 -1 54 6 0 17 5 23 11 9 9 6 17
-10 31 -22 19 -22 19 8 2 l30 -17 -30 26 c-31 27 -51 35 -39 15 4 -7 3 -8 -5
-4 -6 4 -9 11 -6 15 6 11 -133 103 -145 96 -5 -3 -12 0 -16 6 -5 8 -3 9 7 4
12 -8 12 -6 0 8 -15 19 -36 23 -25 5 4 -7 3 -8 -5 -4 -6 4 -9 11 -6 16 3 4 -6
15 -20 24 -34 22 -42 20 -14 -5 l24 -20 -28 17 c-15 9 -25 19 -22 22 2 3 -1
12 -7 20 -10 12 -5 20 27 48 22 18 52 36 68 39 15 4 27 12 28 18 0 9 2 9 5 0
3 -7 11 -11 17 -9z m-2053 -4 c8 -5 11 -10 5 -10 -5 0 -17 5 -25 10 -8 5 -10
10 -5 10 6 0 17 -5 25 -10z m110 -40 c8 -5 11 -10 5 -10 -5 0 -17 5 -25 10 -8
5 -10 10 -5 10 6 0 17 -5 25 -10z m2627 4 c-3 -3 -12 -4 -19 -1 -8 3 -5 6 6 6
11 1 17 -2 13 -5z m-540 -34 c6 0 16 -7 23 -15 10 -12 7 -12 -19 1 -17 9 -31
20 -31 25 0 6 -8 5 -20 -1 -11 -6 -17 -16 -14 -22 4 -7 3 -8 -4 -4 -18 11 -14
22 11 33 17 8 25 8 33 -3 6 -8 16 -14 21 -14z m183 15 c-47 -18 -58 -18 -34 0
10 8 30 14 44 14 22 0 21 -2 -10 -14z m-2210 -5 c8 -5 11 -10 5 -10 -5 0 -17
5 -25 10 -8 5 -10 10 -5 10 6 0 17 -5 25 -10z m1690 -85 c-24 -25 -46 -45 -49
-45 -3 0 15 20 39 45 24 25 46 45 49 45 3 0 -15 -20 -39 -45z m-2281 32 c-16
-13 -99 -57 -99 -53 0 7 83 56 94 56 5 0 7 -1 5 -3z m-14 -65 c-6 -5 -27 -19
-47 -31 l-38 -23 1 29 c1 17 3 21 6 11 6 -22 6 -22 45 2 34 21 49 26 33 12z
m2186 -67 c-25 -27 -39 -51 -35 -58 5 -9 4 -9 -7 1 -11 10 -5 20 31 57 57 58
65 58 11 0z m399 -31 c0 -3 -20 9 -45 26 -25 17 -45 33 -45 36 0 3 20 -9 45
-26 25 -17 45 -33 45 -36z m476 44 c13 -16 14 -19 2 -10 -13 10 -17 10 -21 0
-3 -7 -6 -3 -6 10 -1 27 1 27 25 0z m24 -112 c-10 -34 -14 -37 -22 -23 -5 10
-7 25 -5 35 3 12 5 9 7 -8 1 -23 2 -23 10 -5 5 11 10 40 11 65 2 42 3 42 6 10
3 -19 -1 -53 -7 -74z m-33 52 c-3 -7 -5 -2 -5 12 0 14 2 19 5 13 2 -7 2 -19 0
-25z m-787 -153 l85 -90 -87 85 c-49 46 -88 89 -88 94 0 5 1 7 3 5 1 -3 40
-45 87 -94z m-1460 20 c0 -8 -8 -15 -17 -15 -15 0 -16 2 -3 10 13 8 12 10 -2
10 -10 0 -18 -7 -18 -15 0 -8 -4 -15 -10 -15 -5 0 -10 9 -10 20 0 16 7 20 30
20 20 0 30 -5 30 -15z m1815 -128 c-8 -21 -18 -37 -20 -37 -3 0 2 16 10 36 8
20 15 39 15 42 0 3 2 3 5 0 3 -3 -2 -21 -10 -41z m-212 -12 c12 -2 33 -6 47
-8 20 -3 18 -5 -8 -6 -36 -1 -92 23 -92 40 0 6 7 3 16 -5 8 -9 25 -18 37 -21z
m162 -1 c9 -14 15 -28 12 -30 -2 -2 -10 7 -17 21 -18 34 -30 31 -31 -7 -1 -25
-3 -27 -6 -10 -5 27 2 52 16 52 5 0 16 -12 26 -26z m-1731 -9 c3 -8 1 -25 -5
-37 -9 -21 -9 -21 -4 4 3 15 1 30 -5 33 -6 3 -10 -4 -11 -17 0 -13 -3 -17 -6
-10 -6 16 3 42 16 42 5 0 11 -7 15 -15z m1669 -22 c-7 -2 -19 -2 -25 0 -7 3
-2 5 12 5 14 0 19 -2 13 -5z m-1681 -65 c-7 -7 -12 -8 -12 -2 0 14 12 26 19
19 2 -3 -1 -11 -7 -17z m38 -130 c0 -18 2 -58 5 -88 4 -53 4 -52 -9 15 -8 39
-11 74 -9 79 3 4 -1 12 -8 17 -11 7 -10 9 4 9 13 0 17 -8 17 -32z m2498 -75
c-41 -5 -49 -21 -22 -47 13 -14 13 -16 1 -16 -8 0 -17 10 -21 23 -11 43 -8 47
37 45 l42 -1 -37 -4z m47 -43 c-3 -5 -16 -10 -28 -9 -20 1 -20 2 3 9 14 4 26
8 28 9 2 1 0 -3 -3 -9z m-414 -17 c13 -16 12 -17 -3 -5 -19 15 -74 12 -71 -4
1 -6 -5 -11 -13 -11 -11 0 -11 4 3 19 21 23 66 23 84 1z m100 -2 c-8 -5 -11
-16 -7 -29 9 -27 -12 -39 -30 -18 -8 9 -9 11 -2 6 19 -16 30 -12 23 10 -7 23
1 40 18 40 8 0 8 -3 -2 -9z m-126 -21 c-27 -12 -43 -12 -25 0 8 5 22 9 30 9
10 0 8 -3 -5 -9z m185 -5 c10 -13 9 -15 -9 -15 -11 0 -21 -4 -21 -10 0 -5 7
-10 16 -10 22 0 13 -20 -17 -38 l-24 -14 21 19 c20 18 20 20 5 31 -15 10 -15
12 2 26 18 14 18 14 0 19 -14 4 -15 5 -2 6 9 0 22 -6 29 -14z m-144 -30 l-29
-23 36 -16 c50 -20 47 -28 -3 -9 -22 9 -40 19 -40 24 0 7 51 48 60 48 3 0 -8
-10 -24 -24z m127 -66 c15 6 27 8 27 6 0 -3 -11 -10 -25 -15 -31 -12 -59 -1
-62 25 -1 18 0 18 16 -3 14 -20 21 -22 44 -13z m27 -63 c0 -2 -9 -6 -20 -9
-11 -3 -18 -1 -14 4 5 9 34 13 34 5z m218 -21 c-3 -3 -9 2 -12 12 -6 14 -5 15
5 6 7 -7 10 -15 7 -18z m-2597 -108 c-10 -9 -11 -8 -5 6 3 10 9 15 12 12 3 -3
0 -11 -7 -18z m1974 -31 c-11 -8 -24 -12 -29 -8 -5 3 -1 9 10 13 31 12 39 10
19 -5z m-1941 -192 c3 -8 2 -12 -4 -9 -6 3 -10 10 -10 16 0 14 7 11 14 -7z
m-5 -45 c-16 -10 -23 -4 -14 10 3 6 11 8 17 5 6 -4 5 -9 -3 -15z m-9 -53 c0
-3 -4 -8 -10 -11 -5 -3 -10 -1 -10 4 0 6 5 11 10 11 6 0 10 -2 10 -4z m1526
-168 c4 -7 3 -8 -4 -4 -8 5 -12 -2 -13 -21 -1 -18 -3 -22 -6 -10 -5 18 2 47
11 47 3 0 8 -5 12 -12z m29 -18 c-9 -16 -18 -30 -21 -30 -2 0 2 14 11 30 9 17
18 30 21 30 2 0 -2 -13 -11 -30z m-1257 -69 c18 -22 32 -50 31 -63 -1 -22 -1
-22 -9 3 -8 29 -51 91 -57 85 -3 -2 5 -22 16 -45 29 -56 25 -66 -4 -11 -42 78
-29 95 23 31z m1225 14 c-3 -9 -8 -14 -10 -11 -3 3 -2 9 2 15 9 16 15 13 8 -4z
m-26 -53 c-13 -29 -15 -25 -9 23 4 31 6 36 12 20 4 -11 3 -30 -3 -43z m-151
-40 c-10 -2 -22 0 -28 6 -6 6 0 7 19 4 21 -5 23 -7 9 -10z m-964 -55 c11 -15
17 -33 15 -40 -4 -8 -6 -7 -6 3 -1 8 -10 26 -21 40 -11 14 -19 34 -19 45 l1
20 5 -20 c3 -11 14 -32 25 -48z m-42 0 c0 -12 0 -11 -24 28 l-17 30 20 -24
c12 -13 21 -28 21 -34z m1035 42 c-4 -5 1 -19 11 -30 9 -10 15 -21 12 -24 -2
-3 -18 9 -34 27 -16 17 -24 28 -17 24 6 -3 14 -2 18 4 3 5 8 10 11 10 3 0 2
-5 -1 -11z m-1015 -94 c0 -5 -5 -3 -10 5 -5 8 -10 20 -10 25 0 6 5 3 10 -5 5
-8 10 -19 10 -25z m-51 -95 c-1 -31 -2 -32 -8 -10 -4 14 -10 43 -13 65 l-6 40
13 -30 c8 -16 14 -46 14 -65z m80 25 c0 -5 -6 1 -14 15 -8 14 -14 30 -14 35 0
6 6 -1 14 -15 8 -14 14 -29 14 -35z m64 19 c19 -39 17 -49 -16 -65 -20 -10
-20 -9 2 9 22 18 23 20 7 50 -9 17 -24 33 -33 35 -15 4 -14 5 3 6 14 1 25 -10
37 -35z m-43 -69 c0 -5 -5 -3 -10 5 -5 8 -10 20 -10 25 0 6 5 3 10 -5 5 -8 10
-19 10 -25z m-40 -30 c0 -2 -13 -11 -30 -20 -27 -14 -30 -14 -30 0 0 9 4 13
10 10 5 -3 18 -1 27 4 21 12 23 13 23 6z m648 -62 c-15 -2 -42 -2 -60 0 -18 2
-6 4 27 4 33 0 48 -2 33 -4z m30 -16 c-15 -12 -41 -30 -58 -40 l-29 -18 -37
34 c-25 22 -32 34 -21 34 9 0 14 -4 11 -8 -2 -4 9 -17 24 -28 l29 -20 49 34
c56 39 72 45 32 12z m-520 -32 c-8 -8 -48 8 -42 16 3 5 14 4 25 -2 12 -6 19
-12 17 -14z m817 -112 c74 -37 135 -71 135 -74 0 -4 -24 6 -52 22 -29 16 -56
29 -59 29 -7 0 -35 -120 -31 -133 1 -5 -2 -6 -7 -3 -5 4 -4 27 5 59 19 71 18
77 -13 78 -27 1 -27 1 -4 8 20 5 16 10 -40 36 -34 17 -66 29 -71 28 -4 -2 -8
2 -8 7 0 6 2 10 5 10 3 0 66 -30 140 -67z m-102 12 c-3 -9 -8 -14 -10 -11 -3
3 -2 9 2 15 9 16 15 13 8 -4z m24 -17 c-3 -8 -6 -5 -6 6 -1 11 2 17 5 13 3 -3
4 -12 1 -19z m248 -38 c1 -10 -2 -17 -7 -14 -4 3 -8 15 -8 26 0 26 13 15 15
-12z m40 -8 c-3 -3 -11 0 -18 7 -9 10 -8 11 6 5 10 -3 15 -9 12 -12z m40 -20
c-3 -3 -11 0 -18 7 -9 10 -8 11 6 5 10 -3 15 -9 12 -12z m-40 -2 c3 -6 -1 -7
-9 -4 -18 7 -21 14 -7 14 6 0 13 -4 16 -10z m155 -55 c0 -3 -22 6 -50 20 -27
14 -50 28 -50 30 0 3 23 -6 50 -20 28 -14 50 -28 50 -30z m-115 35 c3 -6 -1
-7 -9 -4 -18 7 -21 14 -7 14 6 0 13 -4 16 -10z m-97 -115 c0 -22 -3 -19 -9 15
-10 60 -9 108 2 55 4 -22 8 -53 7 -70z m137 95 c3 -6 -1 -7 -9 -4 -18 7 -21
14 -7 14 6 0 13 -4 16 -10z m40 -20 c3 -6 -1 -7 -9 -4 -18 7 -21 14 -7 14 6 0
13 -4 16 -10z m-341 -48 c2 -4 0 -14 -6 -22 -8 -12 -9 -12 -5 2 3 9 1 19 -6
22 -9 3 -9 5 0 5 6 1 14 -3 17 -7z m61 -93 c4 -5 11 -6 17 -3 7 4 8 2 4 -4 -5
-8 -20 -2 -47 20 -21 17 -39 33 -39 35 0 6 59 -37 65 -48z m115 21 c0 -5 -8
-10 -17 -10 -15 0 -16 2 -3 10 19 12 20 12 20 0z m673 -7 c-7 -2 -19 -2 -25 0
-7 3 -2 5 12 5 14 0 19 -2 13 -5z m107 -6 c0 -2 -12 -14 -27 -28 -23 -20 -25
-20 -9 -2 18 22 18 22 -21 26 -36 3 -35 4 10 5 26 1 47 1 47 -1z m-91 -33 c14
-12 -19 -1 -35 12 -18 14 -18 14 6 3 14 -6 27 -13 29 -15z m-892 -20 c-6 -6
-47 9 -47 17 0 5 11 3 25 -3 14 -6 24 -13 22 -14z m159 -3 c-3 -5 2 -15 11
-22 14 -12 15 -11 9 11 -6 23 -6 23 9 -3 23 -40 13 -44 -27 -8 -26 24 -29 30
-15 31 10 0 16 -4 13 -9z m-176 -36 c0 -5 -5 -3 -10 5 -5 8 -10 20 -10 25 0 6
5 3 10 -5 5 -8 10 -19 10 -25z m47 19 c-3 -3 -12 -4 -19 -1 -8 3 -5 6 6 6 11
1 17 -2 13 -5z m161 -58 c4 -4 -17 2 -47 14 -59 23 -91 39 -91 44 0 6 128 -49
138 -58z m-188 -11 c0 -5 -5 -3 -10 5 -5 8 -10 20 -10 25 0 6 5 3 10 -5 5 -8
10 -19 10 -25z m20 -50 c0 -5 -5 -3 -10 5 -5 8 -10 20 -10 25 0 6 5 3 10 -5 5
-8 10 -19 10 -25z m197 3 c-3 -8 -6 -5 -6 6 -1 11 2 17 5 13 3 -3 4 -12 1 -19z
m-38 -82 l-34 -31 28 31 c15 16 27 37 28 45 0 11 2 11 6 0 3 -7 -10 -27 -28
-45z m-119 -31 c0 -5 -5 -3 -10 5 -5 8 -10 20 -10 25 0 6 5 3 10 -5 5 -8 10
-19 10 -25z m20 -50 c0 -5 -5 -3 -10 5 -5 8 -10 20 -10 25 0 6 5 3 10 -5 5 -8
10 -19 10 -25z m22 -24 c8 11 9 11 6 1 -4 -16 -22 -18 -24 -2 -2 7 -1 6 3 -1
4 -8 8 -7 15 2z m1715 -333 c-59 -91 -130 -201 -134 -207 -2 -2 -6 -2 -9 1 -6
7 177 287 189 288 4 0 -17 -37 -46 -82z m-1678 16 c-14 -18 -24 -11 -15 11 3
9 11 13 16 10 8 -5 7 -11 -1 -21z m199 -339 c0 -12 -5 -6 -12 15 -8 19 -11 39
-8 45 7 11 20 -29 20 -60z m1089 -266 c-9 -6 -15 -14 -12 -20 4 -5 -1 -12 -9
-15 -9 -3 -14 -10 -11 -14 3 -5 -1 -12 -9 -17 -8 -4 -14 -11 -13 -14 1 -3 -6
-13 -15 -23 -28 -28 -21 -7 20 56 20 32 44 58 52 58 12 -1 11 -3 -3 -11z
m-963 -149 c5 -17 4 -20 -2 -10 -5 8 -13 26 -16 40 -5 17 -4 20 2 10 5 -8 13
-26 16 -40z m-26 -75 c0 -25 -2 -24 -9 10 -10 51 -10 92 1 50 4 -16 8 -43 8
-60z m59 -17 c-3 -8 -6 -5 -6 6 -1 11 2 17 5 13 3 -3 4 -12 1 -19z m-39 -138
c0 -16 -3 -11 -9 15 -4 22 -8 51 -7 65 0 16 3 11 9 -15 4 -22 8 -51 7 -65z m9
-87 c-3 -10 -5 -4 -5 12 0 17 2 24 5 18 2 -7 2 -21 0 -30z m631 -46 c-6 -13
-13 -16 -20 -9 -6 6 -5 17 3 30 17 27 32 7 17 -21z m-573 -707 c20 -39 19 -47
-5 -25 -11 10 -20 26 -20 37 0 26 7 22 25 -12z m261 -26 c-5 -17 -3 -23 4 -19
6 4 10 -5 10 -22 l-1 -28 -14 26 c-12 23 -11 69 2 69 3 0 2 -12 -1 -26z m38
-240 c9 -3 16 -14 16 -23 -1 -14 -2 -14 -11 2 -5 9 -17 17 -26 17 -13 0 -8
-10 18 -37 l34 -38 -37 34 c-44 40 -41 63 6 45z"/>
<path d="M3374 6374 c-18 -14 -18 -15 4 -4 12 6 22 13 22 15 0 8 -5 6 -26 -11z"/>
<path d="M4125 1109 c-4 -6 -5 -12 -2 -15 2 -3 7 2 10 11 7 17 1 20 -8 4z"/>
<path d="M9735 6980 c3 -5 0 -7 -9 -4 -8 3 -17 -2 -20 -14 -6 -19 -39 -23 -53
-7 -5 4 -1 4 7 0 13 -8 13 -7 1 9 -14 16 -16 14 -31 -32 -9 -28 -30 -62 -51
-81 -32 -31 -33 -32 -9 -27 110 22 113 21 90 -39 -7 -17 -7 -24 0 -20 6 3 10
14 11 23 0 10 3 12 6 5 5 -14 48 -8 69 9 6 4 19 6 28 2 10 -4 16 -1 16 9 0 34
185 112 227 96 21 -8 22 -7 13 10 -7 15 -5 22 11 33 19 12 6 14 -105 12 -69
-1 -123 2 -121 6 3 4 -9 10 -26 14 -45 9 -61 7 -54 -4z m40 -10 c-3 -5 -11
-10 -16 -10 -6 0 -7 5 -4 10 3 6 11 10 16 10 6 0 7 -4 4 -10z m-116 -114 c-3
-3 -25 -9 -49 -15 -40 -9 -43 -8 -26 5 17 12 87 21 75 10z"/>
<path d="M3378 6963 c-10 -3 -18 -8 -18 -13 0 -5 -24 -29 -54 -53 l-54 -44 45
-32 c25 -18 46 -31 47 -29 1 2 10 28 21 58 10 30 28 62 39 72 19 15 19 18 6
31 -8 7 -23 12 -32 10z"/>
<path d="M7498 6928 c0 -13 0 -31 0 -41 1 -10 -2 -16 -6 -13 -4 2 -15 -17 -24
-42 l-17 -47 25 30 c49 59 56 73 49 105 -8 35 -24 40 -27 8z m14 -30 c-7 -7
-12 -8 -12 -2 0 14 12 26 19 19 2 -3 -1 -11 -7 -17z"/>
<path d="M7341 6896 c-13 -30 -18 -52 -12 -55 6 -4 6 -22 0 -50 -5 -24 -7 -46
-4 -49 12 -12 45 33 45 61 0 25 3 28 21 24 20 -5 20 -5 3 21 -10 15 -21 43
-24 62 l-7 35 -22 -49z"/>
<path d="M7206 6784 c-11 -27 -23 -54 -28 -61 -7 -8 -3 -10 11 -6 12 3 18 9
16 13 -3 5 9 5 27 0 17 -6 33 -8 35 -7 1 2 -6 21 -16 43 -10 21 -20 45 -23 53
-2 8 -12 -8 -22 -35z m27 -3 c3 -13 1 -18 -9 -14 -7 2 -10 11 -7 19 7 19 10
18 16 -5z"/>
<path d="M6630 6769 c-30 -21 -63 -49 -73 -62 -10 -12 -15 -16 -11 -8 4 8 -19
-6 -52 -30 -60 -44 -112 -68 -151 -69 -25 0 -29 -10 -12 -27 8 -8 1 -18 -25
-38 l-36 -28 62 -36 c59 -34 66 -41 104 -119 22 -45 43 -79 48 -75 4 4 11 1
16 -6 6 -10 11 -3 19 25 6 21 11 42 11 46 0 4 11 23 24 42 23 35 36 37 36 7 0
-14 -2 -14 -10 -1 -8 13 -10 12 -10 -2 0 -10 -6 -18 -12 -18 -14 -1 45 -34 79
-44 16 -5 23 -2 26 11 2 10 3 8 2 -5 -1 -12 2 -25 6 -28 10 -6 12 41 9 178 -1
79 1 89 22 111 13 13 24 35 25 49 1 22 -4 27 -32 32 -35 7 -67 33 -40 33 8 0
12 -4 9 -9 -3 -4 -1 -8 5 -8 12 0 24 57 19 93 l-3 26 -55 -40z m49 -11 c-1
-24 -3 -27 -6 -10 -5 27 -7 27 -46 -2 -35 -25 -66 -43 -56 -32 7 7 103 76 106
76 2 0 2 -15 2 -32z m-9 -265 c0 -31 -3 -53 -7 -49 -4 4 -6 25 -4 48 2 28 -1
38 -9 33 -6 -4 -8 -16 -5 -28 5 -20 5 -20 -5 -4 -9 15 -8 22 6 38 9 10 19 19
21 19 1 0 3 -25 3 -57z m-335 17 c0 -7 -7 -15 -15 -17 -13 -4 -13 -3 0 6 8 5
11 13 7 17 -3 4 -15 1 -24 -7 -16 -13 -17 -12 -4 4 15 19 36 18 36 -3z m302
-167 c-3 -2 -14 0 -24 7 -16 10 -16 11 0 6 9 -3 17 0 18 7 0 8 2 8 6 -1 3 -7
3 -16 0 -19z"/>
<path d="M3441 6774 c0 -11 3 -14 6 -6 3 7 2 16 -1 19 -3 4 -6 -2 -5 -13z"/>
<path d="M9908 6733 c26 -5 29 -19 5 -27 -10 -3 -1 -3 21 -1 43 5 51 9 41 24
-3 6 -25 10 -48 10 -23 -1 -32 -4 -19 -6z"/>
<path d="M3498 6676 c-10 -7 -16 -15 -14 -17 5 -4 -24 -7 -101 -9 -50 -1 -66
-11 -43 -25 6 -4 8 -11 5 -16 -6 -9 26 -14 82 -11 26 1 31 -1 26 -14 -3 -9 -9
-12 -12 -7 -3 4 -13 9 -21 11 -11 3 -10 -1 4 -17 11 -12 15 -27 12 -39 -6 -16
1 -21 39 -31 25 -6 45 -15 45 -20 0 -6 5 -22 10 -37 10 -25 12 -26 28 -10 15
12 21 13 31 3 10 -10 12 -8 9 8 -3 21 11 24 45 10 10 -4 17 -3 17 4 0 6 -9 11
-20 11 -10 0 -23 7 -28 16 -5 8 -19 21 -33 27 -13 7 -28 26 -34 42 -5 17 -17
36 -25 43 -8 8 -9 11 -2 7 7 -4 23 0 36 8 12 8 33 17 47 20 20 4 19 5 -8 6
-30 1 -63 23 -63 42 0 12 -12 11 -32 -5z m-23 -164 c-3 -3 -11 0 -18 7 -9 10
-8 11 6 5 10 -3 15 -9 12 -12z m80 -61 c3 -5 1 -12 -5 -16 -5 -3 -10 1 -10 9
0 18 6 21 15 7z"/>
<path d="M8501 6664 c0 -11 3 -14 6 -6 3 7 2 16 -1 19 -3 4 -6 -2 -5 -13z"/>
<path d="M11620 6400 c0 -19 3 -21 12 -12 9 9 9 15 0 24 -9 9 -12 7 -12 -12z"/>
<path d="M3140 6172 c6 -13 14 -21 18 -18 3 4 -2 14 -12 24 -18 16 -18 16 -6
-6z"/>
<path d="M7970 6161 c0 -6 4 -13 10 -16 6 -3 7 1 4 9 -7 18 -14 21 -14 7z"/>
<path d="M880 5586 c0 -7 -2 -29 -5 -47 l-5 -34 14 35 c18 42 19 60 6 60 -5 0
-10 -6 -10 -14z"/>
<path d="M5550 5488 c-30 -4 -84 -5 -119 -2 -57 5 -63 3 -57 -12 3 -9 1 -23
-5 -30 -9 -11 -9 -14 0 -14 7 0 10 -4 7 -9 -3 -5 1 -11 9 -15 9 -3 15 -18 15
-36 0 -16 5 -30 11 -30 5 0 15 -13 20 -30 12 -33 19 -36 37 -18 9 9 16 8 30
-5 17 -16 20 -15 48 14 25 26 64 53 91 62 13 4 59 52 56 59 -2 4 1 9 7 13 6 4
7 11 4 17 -4 6 -3 8 2 5 6 -3 16 -2 24 4 11 6 2 9 -27 9 -24 0 -43 4 -43 9 0
13 -48 17 -110 9z m-90 -179 c0 -11 -4 -17 -10 -14 -5 3 -10 15 -10 26 0 11 5
17 10 14 6 -3 10 -15 10 -26z m75 -9 c-10 -11 -22 -17 -28 -13 -5 3 1 12 14
19 33 18 35 17 14 -6z"/>
<path d="M11185 4594 c-18 -16 -22 -22 -9 -15 18 9 53 42 43 41 -2 -1 -17 -12
-34 -26z"/>
<path d="M10900 3920 c-14 -11 -20 -20 -14 -20 6 0 19 9 29 20 23 25 17 25
-15 0z"/>
<path d="M2920 3710 c36 -11 52 -11 45 0 -3 6 -21 10 -38 9 -31 -1 -31 -1 -7
-9z"/>
<path d="M3065 3422 c-3 -7 -5 -15 -5 -16 0 -2 21 -6 47 -10 48 -6 183 -63
183 -77 0 -6 104 -59 117 -59 2 0 1 4 -2 10 -3 6 1 7 10 3 13 -4 14 -8 4 -14
-26 -16 2 -21 143 -24 98 -3 135 -1 119 6 -13 5 -29 15 -35 22 -6 8 -72 30
-146 51 -74 21 -169 52 -210 68 -98 39 -217 60 -225 40z"/>
<path d="M10562 3277 c-7 -16 -12 -37 -12 -48 0 -27 -9 -24 -53 19 l-39 37 35
-75 c104 -225 210 -423 222 -413 4 5 5 1 3 -7 -7 -21 10 -50 25 -44 9 3 31
-24 61 -72 38 -62 47 -84 45 -115 -4 -50 6 -58 25 -20 10 19 12 32 6 36 -6 3
-10 12 -10 18 0 8 3 8 9 -1 7 -11 10 -10 15 3 8 23 8 24 -11 19 -10 -2 -23 -1
-29 3 -19 14 -66 145 -59 167 3 12 25 37 50 57 l43 36 -54 54 -54 54 6 -35 c3
-19 8 -41 10 -48 2 -7 0 -11 -5 -8 -5 3 -11 28 -15 55 -5 41 -12 53 -44 77
-20 15 -31 21 -24 14 6 -8 12 -19 12 -25 -1 -11 -23 24 -26 41 -1 6 -13 23
-28 39 -14 15 -26 34 -26 42 0 8 -4 12 -9 9 -5 -4 -7 3 -4 14 7 27 -18 110
-33 110 -7 0 -14 8 -17 18 -3 13 -6 11 -15 -11z m-29 -93 c-7 -18 -6 -18 -28
26 l-18 35 26 -24 c14 -13 23 -30 20 -37z m314 -331 c-23 -24 -29 -26 -37 -13
-14 23 -12 36 3 16 12 -16 14 -16 32 4 18 20 18 21 -16 58 l-34 37 40 -37 40
-38 -28 -27z m-53 -130 c9 -18 14 -33 12 -33 -6 0 -36 55 -36 66 0 11 5 3 24
-33z"/>
<path d="M9676 3161 c-3 -4 3 -16 14 -26 12 -11 20 -13 20 -6 0 6 -7 14 -15
17 -8 4 -12 10 -9 15 3 5 3 9 0 9 -3 0 -7 -4 -10 -9z"/>
<path d="M10515 2952 c-16 -26 -42 -64 -58 -84 -16 -21 -26 -38 -24 -38 3 0
-7 -12 -21 -28 -15 -15 -40 -45 -57 -65 -30 -38 -44 -45 -99 -46 -38 -1 -30
-10 12 -13 29 -2 30 -3 15 -20 -8 -10 -19 -15 -23 -13 -4 3 -10 -4 -13 -14 -2
-11 -29 -32 -58 -46 -47 -24 -51 -29 -36 -40 10 -7 16 -17 15 -23 -2 -5 20
-35 47 -66 44 -50 54 -57 78 -52 18 4 41 -2 65 -14 20 -11 42 -20 48 -20 13 0
24 32 24 71 0 14 9 36 20 49 11 13 20 34 20 47 0 21 4 23 53 24 52 1 52 1 17
11 -19 5 -41 15 -48 20 -15 13 -8 56 19 109 l18 36 -35 13 c-18 8 -36 22 -40
32 -3 12 14 54 46 114 55 103 63 133 15 56z m-94 -159 c-5 -10 -17 -27 -26
-38 -16 -19 -17 -19 -3 5 26 46 29 50 34 50 3 0 0 -8 -5 -17z"/>
<path d="M10260 2659 c0 -5 5 -7 10 -4 6 3 10 8 10 11 0 2 -4 4 -10 4 -5 0
-10 -5 -10 -11z"/>
<path d="M10940 2535 c20 -12 22 -14 7 -15 -14 0 -7 -10 25 -36 59 -49 67 -59
38 -44 -14 7 -29 19 -33 26 -4 8 -22 14 -40 14 -27 -1 -29 -2 -14 -11 9 -5 22
-7 29 -3 6 4 8 3 5 -3 -4 -6 5 -16 21 -22 15 -5 38 -16 52 -24 14 -7 60 -31
104 -53 76 -38 121 -77 110 -95 -12 -20 -247 -180 -258 -176 -7 3 -22 -8 -35
-24 -13 -16 -45 -44 -71 -63 l-49 -35 -30 28 c-17 16 -31 25 -31 20 0 -5 -9
-18 -20 -29 -16 -16 -25 -18 -40 -10 -16 8 -18 8 -14 -5 3 -8 10 -12 15 -9 12
7 11 2 -7 -34 -11 -22 -26 -35 -52 -42 -41 -11 -75 -30 -54 -30 20 0 14 -26
-13 -58 -31 -36 -104 -69 -175 -77 -74 -9 -140 -34 -142 -54 -1 -9 -2 -33 -4
-54 -3 -46 -15 -61 -99 -118 -35 -24 -62 -45 -60 -48 3 -2 11 2 20 9 9 7 19
10 22 6 4 -4 2 -11 -6 -15 -8 -5 6 -16 44 -31 80 -33 85 -40 85 -123 0 -68 -3
-76 -45 -141 -25 -38 -43 -71 -41 -73 2 -2 19 0 37 6 24 6 28 10 14 11 -11 1
-24 2 -30 1 -5 -1 -2 5 7 12 10 8 14 18 10 22 -4 5 -1 5 6 1 7 -4 9 -12 6 -18
-5 -7 -1 -9 9 -5 12 5 19 -1 23 -18 3 -14 11 -25 16 -25 5 0 8 -6 6 -12 -8
-23 14 -36 33 -19 9 9 29 26 43 39 14 13 30 21 35 18 12 -8 42 4 36 14 -4 7
32 12 85 12 13 0 37 11 52 24 28 23 85 44 120 44 28 0 270 -109 284 -128 11
-16 13 -16 32 1 12 11 23 14 26 9 3 -6 0 -12 -6 -15 -8 -2 -1 -10 15 -17 31
-15 36 -36 10 -43 -10 -2 -3 -2 15 0 25 3 32 0 34 -14 7 -91 19 -135 33 -129
7 2 18 -1 24 -7 7 -7 17 -12 24 -12 7 0 11 -12 10 -28 -1 -18 2 -25 9 -21 6 4
8 3 4 -4 -3 -6 -1 -23 5 -39 7 -15 13 -62 14 -103 1 -42 5 -86 9 -98 8 -25 31
-29 40 -7 3 8 17 20 31 25 14 5 25 16 25 24 0 7 21 38 47 67 45 49 46 52 20
46 -36 -10 -35 7 3 83 23 46 27 60 15 60 -8 0 -13 -6 -11 -12 1 -7 1 -10 -1
-5 -3 4 -10 4 -16 1 -7 -4 -5 0 3 9 8 8 41 18 74 21 33 3 61 8 63 10 3 2 -3
19 -12 36 -14 27 -15 37 -4 61 6 16 16 32 21 35 5 4 2 -8 -7 -26 -14 -27 -15
-37 -5 -59 7 -14 14 -36 15 -49 3 -19 0 -22 -18 -18 -12 3 2 -6 32 -19 29 -14
56 -23 59 -20 3 3 1 5 -5 5 -6 0 -9 9 -6 20 3 11 0 72 -7 135 l-11 115 38 45
c30 36 43 45 64 42 19 -2 25 1 22 10 -3 7 -8 11 -12 9 -3 -2 -6 6 -6 19 0 13
3 21 8 18 4 -2 7 1 7 6 0 6 -4 11 -10 11 -18 0 -11 28 14 57 22 26 24 34 16
69 -6 26 -5 42 2 49 8 7 9 6 3 -4 -5 -9 -4 -12 2 -8 5 3 18 25 28 47 16 36 17
43 4 51 -22 13 -24 11 -26 -24 l-2 -32 14 25 c8 14 14 21 14 15 0 -5 -6 -21
-13 -34 -13 -24 -14 -24 -20 -4 -4 11 -4 28 0 37 3 9 1 16 -6 16 -6 0 -9 4 -6
8 3 5 -6 15 -19 22 -14 7 -25 17 -25 22 0 5 -7 17 -16 25 -11 11 -12 18 -4 23
6 4 10 13 8 20 -2 7 4 15 12 17 13 4 13 3 0 -7 -20 -15 18 -5 74 21 l41 19
-83 0 c-46 0 -81 -4 -78 -9 3 -4 29 -6 58 -3 29 2 50 2 47 -2 -9 -10 -109 -16
-109 -6 0 5 -6 15 -13 22 -34 34 -107 189 -107 228 0 19 -4 30 -8 23 -4 -6 -7
18 -7 55 0 37 -4 104 -8 150 -6 59 -5 82 3 82 6 0 46 -16 88 -36 157 -74 152
-75 78 15 -36 43 -66 82 -66 85 0 3 9 6 20 6 11 0 20 5 20 10 0 6 21 10 48 11
51 0 142 16 105 18 -24 1 -31 15 -13 26 5 3 15 16 21 28 8 16 2 13 -24 -12
l-36 -34 -123 31 c-68 18 -127 38 -133 45 -5 6 -26 13 -45 14 -35 2 -209 55
-242 74 -12 6 -18 6 -18 -1 0 -11 -51 -2 -60 10 -3 4 -23 10 -45 14 -22 4 -47
9 -55 10 -8 2 -28 8 -43 15 -39 15 -47 13 -17 -4z m664 -195 c15 -15 -23 -24
-47 -12 -19 9 -17 10 13 6 l35 -4 -35 15 c-33 14 -34 15 -5 9 17 -3 34 -9 39
-14z m61 -10 c17 -7 14 -9 -13 -9 -20 -1 -31 3 -27 9 7 12 13 12 40 0z m-355
-125 c0 -2 -10 -9 -21 -16 -15 -8 -19 -8 -15 0 9 14 -28 14 -57 0 -21 -10 -21
-10 -3 5 18 14 96 23 96 11z m147 -17 c2 -16 0 -19 -6 -9 -6 9 -11 10 -15 2
-4 -6 -12 -11 -18 -11 -5 0 0 9 13 20 13 10 24 19 24 20 1 0 2 -10 2 -22z
m-287 8 c0 -3 -15 -14 -32 -26 l-33 -22 30 26 c31 27 35 29 35 22z m153 -33
c-7 -2 -19 -2 -25 0 -7 3 -2 5 12 5 14 0 19 -2 13 -5z m27 -85 l-5 -83 -3 69
c-3 61 1 96 10 96 2 0 1 -37 -2 -82z m-262 53 c-7 -11 -16 -17 -21 -14 -4 3 0
11 10 19 24 18 25 17 11 -5z m319 -13 c-3 -7 -5 -2 -5 12 0 14 2 19 5 13 2 -7
2 -19 0 -25z m60 -50 c-2 -13 -4 -3 -4 22 0 25 2 35 4 23 2 -13 2 -33 0 -45z
m-320 27 c-33 -30 -40 -31 -58 -7 -13 15 -12 16 4 3 16 -12 21 -12 45 7 37 29
43 27 9 -3z m58 -18 c15 -4 14 -5 -7 -6 -21 -1 -28 4 -28 17 0 11 3 13 8 6 4
-7 16 -14 27 -17z m212 1 c-3 -8 -6 -5 -6 6 -1 11 2 17 5 13 3 -3 4 -12 1 -19z
m42 -78 c5 0 12 10 14 23 2 12 5 4 5 -18 0 -22 -2 -34 -5 -27 -2 6 -10 12 -17
12 -13 0 -36 41 -36 63 1 7 7 -3 15 -20 8 -18 18 -33 24 -33z m-240 -88 c12
-18 20 -32 17 -32 -15 0 -56 78 -55 105 1 29 2 29 8 -6 4 -20 17 -50 30 -67z
m118 41 c-3 -10 -5 -4 -5 12 0 17 2 24 5 18 2 -7 2 -21 0 -30z m-33 -68 c-19
-15 -30 -19 -33 -12 -2 7 -9 15 -15 19 -8 6 -7 8 1 8 6 0 15 -4 18 -10 8 -13
45 10 46 30 0 12 2 12 6 1 3 -7 -7 -23 -23 -36z m-1104 -429 c0 -2 -11 -6 -25
-8 -13 -3 -22 -1 -19 3 5 9 44 13 44 5z m37 -12 c-3 -3 -12 -4 -19 -1 -8 3 -5
6 6 6 11 1 17 -2 13 -5z m-32 -14 c3 -6 -1 -7 -9 -4 -18 7 -21 14 -7 14 6 0
13 -4 16 -10z m42 -22 c-3 -8 -6 -5 -6 6 -1 11 2 17 5 13 3 -3 4 -12 1 -19z
m626 -215 c-7 -2 -19 -2 -25 0 -7 3 -2 5 12 5 14 0 19 -2 13 -5z m-616 -28
c-4 -8 -12 -15 -19 -14 -10 0 -10 2 0 6 6 2 12 12 12 21 0 8 3 13 6 9 4 -3 4
-13 1 -22z m548 15 c-12 -5 -14 -9 -6 -9 8 -1 12 -3 9 -6 -3 -3 -18 1 -34 10
l-29 15 40 -1 c31 0 36 -2 20 -9z m131 -16 c24 -19 34 -34 33 -53 l-1 -26 -7
27 c-3 15 -21 39 -40 53 -19 14 -31 25 -27 25 4 0 23 -12 42 -26z m-91 -14 c3
-6 -1 -7 -9 -4 -18 7 -21 14 -7 14 6 0 13 -4 16 -10z m45 -20 c8 -5 11 -10 5
-10 -5 0 -17 5 -25 10 -8 5 -10 10 -5 10 6 0 17 -5 25 -10z m45 -20 c3 -6 -1
-7 -9 -4 -18 7 -21 14 -7 14 6 0 13 -4 16 -10z m642 -142 c-2 -13 -4 -5 -4 17
-1 22 1 32 4 23 2 -10 2 -28 0 -40z m9 -145 c-2 -3 -13 0 -23 7 -16 10 -16 11
0 6 14 -4 17 1 19 32 l1 37 4 -39 c3 -21 2 -40 -1 -43z m-296 -18 c12 -13 27
-22 31 -19 5 3 9 -3 9 -12 0 -14 -8 -10 -35 16 -40 39 -52 34 -58 -25 l-4 -40
-1 47 c-2 42 4 54 29 57 3 1 16 -10 29 -24z m80 -16 c-7 -11 -13 -35 -16 -52
-2 -17 -8 -35 -13 -40 -12 -12 -66 0 -82 19 -10 12 -7 12 17 -1 35 -18 64 -19
65 -2 5 45 7 55 18 75 6 12 14 22 17 22 2 0 0 -9 -6 -21z m20 -9 c-6 -11 -13
-20 -16 -20 -2 0 0 9 6 20 6 11 13 20 16 20 2 0 0 -9 -6 -20z m-6 -107 c-5 -5
-12 -12 -16 -18 -4 -6 -8 -2 -8 8 0 9 7 17 17 17 9 0 12 -3 7 -7z"/>
<path d="M10609 2488 c-8 -4 -25 -9 -39 -12 -14 -3 -38 -24 -53 -46 l-29 -41
24 6 c20 5 27 0 40 -27 l17 -33 0 46 c1 44 7 53 36 58 6 1 13 -8 17 -21 5 -20
6 -18 7 10 1 27 5 32 26 32 23 0 29 8 23 28 -4 9 -51 10 -69 0z"/>
<path d="M10165 2480 c-3 -5 -1 -10 4 -10 6 0 11 5 11 10 0 6 -2 10 -4 10 -3
0 -8 -4 -11 -10z"/>
<path d="M11865 2302 c19 -18 75 -46 75 -38 0 3 -21 16 -47 31 -33 18 -42 20
-28 7z"/>
<path d="M10970 2235 c-24 -14 -24 -14 -4 -15 12 0 24 7 28 15 6 18 7 18 -24
0z"/>
<path d="M10756 2220 c-16 -10 -34 -26 -38 -34 -5 -9 -16 -16 -23 -16 -8 0
-15 -5 -15 -12 0 -6 -10 -22 -22 -35 -21 -22 -21 -24 -3 -17 11 4 39 20 63 36
23 16 55 34 71 39 37 13 46 35 21 49 -22 12 -18 13 -54 -10z m54 0 c12 -8 11
-10 -7 -10 -13 0 -23 5 -23 10 0 13 11 13 30 0z"/>
<path d="M7941 2132 c-11 -21 -26 -44 -35 -51 -8 -7 -27 -33 -41 -57 -20 -33
-40 -51 -85 -74 -66 -33 -74 -49 -71 -126 1 -29 -1 -54 -6 -57 -4 -3 -6 20 -5
50 2 30 0 54 -5 52 -17 -8 -83 -54 -83 -59 0 -3 14 -21 32 -40 l30 -35 -26 37
-26 37 29 20 c16 12 33 21 38 21 4 0 -6 -10 -24 -21 l-32 -21 21 -29 c12 -16
26 -29 31 -29 5 0 5 -6 -1 -13 -6 -7 -12 -26 -14 -42 -2 -17 -7 -33 -13 -38
-6 -4 0 -15 14 -26 15 -11 22 -24 18 -34 -4 -11 -2 -14 8 -10 8 3 18 -2 21
-11 5 -12 10 -13 26 -5 16 8 23 8 29 -2 8 -11 12 -10 25 6 16 20 16 20 9 -2
-3 -13 -4 -23 -2 -23 3 0 17 39 32 88 15 48 42 125 61 172 52 134 75 254 47
243 -16 -6 -16 -7 6 60 10 32 17 57 15 57 -2 0 -12 -17 -23 -38z"/>
<path d="M10270 1710 c0 -5 5 -10 11 -10 5 0 7 5 4 10 -3 6 -8 10 -11 10 -2 0
-4 -4 -4 -10z"/>
<path d="M12360 990 c0 -8 -7 -64 -15 -125 -17 -130 -17 -153 0 -70 l13 60 -1
-52 c0 -39 -5 -57 -21 -72 -34 -32 -43 -46 -38 -60 2 -7 0 -16 -6 -20 -6 -3
-53 -47 -105 -97 -52 -51 -128 -114 -168 -142 -41 -27 -80 -60 -87 -73 -6 -13
-20 -69 -31 -123 l-19 -100 143 147 c78 81 148 147 154 147 6 0 11 7 11 15 0
23 76 101 122 125 68 35 147 103 147 126 1 12 8 27 16 34 8 7 12 16 10 21 -3
4 50 65 117 135 l123 128 -140 -117 c-77 -64 -143 -117 -146 -117 -4 0 -12 19
-18 43 -17 71 -60 203 -61 187z m205 -151 c-22 -22 -49 -45 -60 -51 -11 -6 5
12 35 40 66 62 79 67 25 11z m-633 -621 c-7 -7 -12 -18 -12 -26 0 -12 3 -12
15 -2 25 21 17 5 -11 -21 l-27 -24 7 30 c8 30 23 55 34 55 3 0 1 -5 -6 -12z"/>
<path d="M3985 902 c-11 -11 -4 -20 12 -18 22 3 29 23 8 23 -8 0 -17 -3 -20
-5z"/>
</g>
</svg>
